<?xml version="1.0" encoding="UTF-8"?>
<!DOCTYPE svg PUBLIC "-//W3C//DTD SVG 1.1//EN" "http://www.w3.org/Graphics/SVG/1.1/DTD/svg11.dtd">
<!-- Creator: CorelDRAW X8 -->
<svg xmlns="http://www.w3.org/2000/svg" xml:space="preserve" width="21cm" height="29.7cm" version="1.1" style="shape-rendering:geometricPrecision; text-rendering:geometricPrecision; image-rendering:optimizeQuality; fill-rule:evenodd; clip-rule:evenodd"
viewBox="0 0 210 297"
 xmlns:xlink="http://www.w3.org/1999/xlink">
 <defs>
  <style type="text/css">
   <![CDATA[
    .str0 {stroke:#373435;stroke-width:0.0762}
    .fil0 {fill:none}
   ]]>
  </style>
 </defs>
 <g id="Camada_x0020_1">
  <metadata id="CorelCorpID_0Corel-Layer"/>
  <polygon class="fil0 str0" points="38,173 48,174 58,173 59,174 48,177 37,174 "/>
  <polygon class="fil0 str0" points="149,156 155,157 160,156 165,157 170,156 169,161 160,160 151,161 "/>
  <polygon class="fil0 str0" points="130,181 117,181 117,173 130,173 "/>
  <polygon class="fil0 str0" points="77,181 37,181 37,178 77,178 "/>
  <polygon class="fil0 str0" points="111,158 144,158 146,163 145,170 139,170 136,173 125,171 111,172 "/>
  <polygon class="fil0 str0" points="133,155 111,157 105,149 105,144 111,136 133,138 "/>
  <polygon class="fil0 str0" points="110,133 97,132 86,134 83,130 78,130 76,122 77,116 111,116 "/>
  <polygon class="fil0 str0" points="77,160 90,161 101,159 105,163 110,163 111,171 110,177 76,177 "/>
  <polygon class="fil0 str0" points="37,117 49,117 63,116 66,119 73,118 76,126 74,128 74,134 76,135 73,143 66,142 63,146 49,144 37,144 "/>
  <polygon class="fil0 str0" points="76,173 63,172 50,174 47,171 40,171 36,164 39,162 39,156 36,154 40,147 47,147 50,144 63,146 76,145 "/>
  <polygon class="fil0 str0" points="75,177 65,176 54,177 53,176 65,173 76,176 "/>
  <polygon class="fil0 str0" points="117,181 77,181 77,178 117,178 "/>
  <polygon class="fil0 str0" points="149,181 137,181 137,173 149,173 "/>
  <polygon class="fil0 str0" points="159,170 147,170 147,161 159,161 "/>
  <polygon class="fil0 str0" points="171,170 159,170 159,161 171,161 "/>
  <polygon class="fil0 str0" points="80,154 91,156 101,154 102,156 91,158 79,156 "/>
  <polygon class="fil0 str0" points="80,157 91,159 101,157 102,159 91,161 79,159 "/>
  <polygon class="fil0 str0" points="169,152 137,152 134,147 135,140 141,139 144,137 155,138 169,137 "/>
  <polygon class="fil0 str0" points="111,118 134,116 140,124 140,129 134,137 111,135 "/>
  <polygon class="fil0 str0" points="140,118 163,116 168,124 168,129 163,137 140,135 "/>
  <polygon class="fil0 str0" points="76,135 99,133 105,141 105,146 99,154 76,152 "/>
  <polygon class="fil0 str0" points="170,175 165,174 160,175 155,174 149,175 150,170 160,171 169,170 "/>
  <polygon class="fil0 str0" points="170,179 165,179 160,179 155,179 149,179 150,175 160,176 169,175 "/>
  <polygon class="fil0 str0" points="154,157 149,156 144,157 139,156 133,157 135,152 144,153 153,152 "/>
 </g>
</svg>
