<?xml version="1.0" encoding="UTF-8"?>
<!DOCTYPE svg PUBLIC "-//W3C//DTD SVG 1.1//EN" "http://www.w3.org/Graphics/SVG/1.1/DTD/svg11.dtd">
<!-- Creator: CorelDRAW X8 -->
<svg xmlns="http://www.w3.org/2000/svg" xml:space="preserve" width="21cm" height="29.7cm" version="1.1" style="shape-rendering:geometricPrecision; text-rendering:geometricPrecision; image-rendering:optimizeQuality; fill-rule:evenodd; clip-rule:evenodd"
viewBox="0 0 210 297"
 xmlns:xlink="http://www.w3.org/1999/xlink">
 <defs>
  <style type="text/css">
   <![CDATA[
    .str0 {stroke:#373435;stroke-width:0.0762}
    .fil0 {fill:none}
   ]]>
  </style>
 </defs>
 <g id="Camada_x0020_1">
  <metadata id="CorelCorpID_0Corel-Layer"/>
  <g id="_1871615498096">
   <g id="_2396712840832">
    <polygon class="fil0 str0" points="-350,45 -294,17 -238,45 -238,129 -294,157 -350,129 "/>
    <polygon class="fil0 str0" points="-350,269 -294,241 -238,269 -238,353 -294,381 -350,353 "/>
    <polygon class="fil0 str0" points="-154,-39 -70,-39 -98,17 -70,73 -70,101 -126,101 -182,45 -182,-11 "/>
    <polygon class="fil0 str0" points="-154,241 -70,241 -98,297 -70,353 -70,381 -126,381 -182,325 -182,269 "/>
    <polygon class="fil0 str0" points="-434,157 -378,157 -350,185 -350,241 -378,269 -434,269 -462,241 -462,185 "/>
    <polygon class="fil0 str0" points="-434,269 -378,269 -350,297 -350,353 -378,381 -434,381 -462,353 -462,297 "/>
    <polygon class="fil0 str0" points="-462,-39 -406,-11 -350,-39 -378,17 -350,101 -406,73 -462,101 -434,45 "/>
    <polygon class="fil0 str0" points="-350,129 -294,157 -238,129 -266,185 -238,269 -294,241 -350,269 -322,213 "/>
    <polygon class="fil0 str0" points="-322,-39 -182,-39 -182,101 -210,101 -238,45 -266,17 -322,-11 "/>
    <polygon class="fil0 str0" points="-238,101 -98,101 -98,241 -126,241 -154,185 -182,157 -238,129 "/>
    <polygon class="fil0 str0" points="-406,73 -350,157 -462,157 "/>
    <polygon class="fil0 str0" points="-182,157 -126,241 -238,241 "/>
    <polygon class="fil0 str0" points="-238,241 -182,241 -182,297 -238,297 "/>
    <polygon class="fil0 str0" points="-238,297 -182,297 -182,353 -238,353 "/>
   </g>
  </g>
 </g>
</svg>
