<?xml version="1.0" encoding="UTF-8"?>
<!DOCTYPE svg PUBLIC "-//W3C//DTD SVG 1.1//EN" "http://www.w3.org/Graphics/SVG/1.1/DTD/svg11.dtd">
<!-- Creator: CorelDRAW X8 -->
<svg xmlns="http://www.w3.org/2000/svg" xml:space="preserve" width="21cm" height="29.7cm" version="1.1" style="shape-rendering:geometricPrecision; text-rendering:geometricPrecision; image-rendering:optimizeQuality; fill-rule:evenodd; clip-rule:evenodd"
viewBox="0 0 210 297"
 xmlns:xlink="http://www.w3.org/1999/xlink">
 <defs>
  <style type="text/css">
   <![CDATA[
    .str0 {stroke:#373435;stroke-width:0.0762}
    .fil0 {fill:none}
   ]]>
  </style>
 </defs>
 <g id="Camada_x0020_1">
  <metadata id="CorelCorpID_0Corel-Layer"/>
  <g id="_1774473435808">
   <g>
    <g>
     <polygon class="fil0 str0" points="2,132 -12,132 -12,118 2,118 "/>
    </g>
    <g>
     <polygon class="fil0 str0" points="-12,146 -12,132 -3,132 -3,146 "/>
    </g>
    <g>
     <polygon class="fil0 str0" points="2,156 2,146 -8,146 -12,156 "/>
    </g>
    <g>
     <polygon class="fil0 str0" points="-3,132 7,132 7,142 -3,142 "/>
    </g>
    <g>
     <polygon class="fil0 str0" points="2,128 2,118 12,118 12,128 "/>
    </g>
    <g>
     <polygon class="fil0 str0" points="2,142 2,156 16,156 "/>
    </g>
    <g>
     <polygon class="fil0 str0" points="16,137 16,151 4,144 "/>
    </g>
    <g>
     <polygon class="fil0 str0" points="12,118 16,128 21,128 21,118 "/>
    </g>
    <g>
     <polygon class="fil0 str0" points="22,137 22,128 8,137 "/>
    </g>
    <g>
     <polygon class="fil0 str0" points="3,128 17,128 10,135 "/>
    </g>
    <g>
     <polygon class="fil0 str0" points="16,137 21,137 21,146 16,146 "/>
    </g>
    <g>
     <polygon class="fil0 str0" points="21,157 13,153 21,149 "/>
    </g>
   </g>
  </g>
 </g>
</svg>
