<?xml version="1.0" encoding="UTF-8"?>
<!DOCTYPE svg PUBLIC "-//W3C//DTD SVG 1.1//EN" "http://www.w3.org/Graphics/SVG/1.1/DTD/svg11.dtd">
<!-- Creator: CorelDRAW X8 -->
<svg xmlns="http://www.w3.org/2000/svg" xml:space="preserve" width="21cm" height="29.7cm" version="1.1" style="shape-rendering:geometricPrecision; text-rendering:geometricPrecision; image-rendering:optimizeQuality; fill-rule:evenodd; clip-rule:evenodd"
viewBox="0 0 210 297"
 xmlns:xlink="http://www.w3.org/1999/xlink">
 <defs>
  <style type="text/css">
   <![CDATA[
    .str0 {stroke:#373435;stroke-width:0.0762}
    .fil0 {fill:none}
   ]]>
  </style>
 </defs>
 <g id="Layer_x0020_1">
  <metadata id="CorelCorpID_0Corel-Layer"/>
  <g id="_1871328433024">
   <g>
    <g>
     <polygon class="fil0 str0" points="-51,104 -32,123 121,123 140,104 "/>
     <polygon class="fil0 str0" points="-13,113 -10,113 -10,115 -13,115 "/>
     <polygon class="fil0 str0" points="-5,113 -2,113 -2,115 -5,115 "/>
     <polygon class="fil0 str0" points="2,113 5,113 5,115 2,115 "/>
     <polygon class="fil0 str0" points="9,113 12,113 12,115 9,115 "/>
     <polygon class="fil0 str0" points="16,113 19,113 19,115 16,115 "/>
     <polygon class="fil0 str0" points="23,113 26,113 26,115 23,115 "/>
     <polygon class="fil0 str0" points="30,113 33,113 33,115 30,115 "/>
     <polygon class="fil0 str0" points="37,113 40,113 40,115 37,115 "/>
     <polygon class="fil0 str0" points="45,113 48,113 48,115 45,115 "/>
     <polygon class="fil0 str0" points="52,113 55,113 55,115 52,115 "/>
     <polygon class="fil0 str0" points="59,113 62,113 62,115 59,115 "/>
     <polygon class="fil0 str0" points="66,113 69,113 69,115 66,115 "/>
     <polygon class="fil0 str0" points="73,113 76,113 76,115 73,115 "/>
     <polygon class="fil0 str0" points="80,113 83,113 83,115 80,115 "/>
     <polygon class="fil0 str0" points="87,113 90,113 90,115 87,115 "/>
     <polygon class="fil0 str0" points="95,113 98,113 98,115 95,115 "/>
    </g>
    <g>
     <polygon class="fil0 str0" points="-51,123 -32,142 121,142 140,123 "/>
    </g>
    <g>
     <polygon class="fil0 str0" points="-51,142 -32,142 -32,161 -51,161 "/>
     <polygon class="fil0 str0" points="-43,150 -40,150 -40,152 -43,152 "/>
    </g>
    <g>
     <polygon class="fil0 str0" points="-32,142 -12,142 -12,161 -32,161 "/>
     <polygon class="fil0 str0" points="-24,150 -21,150 -21,152 -24,152 "/>
    </g>
    <g>
     <polygon class="fil0 str0" points="-12,142 7,142 7,161 -12,161 "/>
     <polygon class="fil0 str0" points="-4,151 -2,151 -2,153 -4,153 "/>
    </g>
    <g>
     <polygon class="fil0 str0" points="26,161 7,161 7,142 26,142 "/>
     <polygon class="fil0 str0" points="18,153 15,153 15,151 18,151 "/>
    </g>
    <g>
     <polygon class="fil0 str0" points="26,142 45,142 45,161 26,161 "/>
     <polygon class="fil0 str0" points="34,150 36,150 36,152 34,152 "/>
    </g>
    <g>
     <polygon class="fil0 str0" points="64,161 45,161 45,142 64,142 "/>
     <polygon class="fil0 str0" points="56,152 54,152 54,150 56,150 "/>
    </g>
    <g>
     <polygon class="fil0 str0" points="83,161 64,161 64,142 83,142 "/>
     <polygon class="fil0 str0" points="75,153 73,153 73,151 75,151 "/>
    </g>
    <g>
     <polygon class="fil0 str0" points="83,142 102,142 102,161 83,161 "/>
     <polygon class="fil0 str0" points="91,150 93,150 93,152 91,152 "/>
    </g>
    <g>
     <polygon class="fil0 str0" points="102,142 121,142 121,161 102,161 "/>
     <polygon class="fil0 str0" points="110,150 112,150 112,152 110,152 "/>
    </g>
    <g>
     <polygon class="fil0 str0" points="121,142 140,142 140,161 121,161 "/>
     <polygon class="fil0 str0" points="129,150 131,150 131,152 129,152 "/>
    </g>
    <g>
     <polygon class="fil0 str0" points="140,123 159,123 159,142 140,142 "/>
     <polygon class="fil0 str0" points="149,131 151,131 151,133 149,133 "/>
    </g>
    <g>
     <polygon class="fil0 str0" points="159,161 140,161 140,142 159,142 "/>
     <polygon class="fil0 str0" points="150,153 148,153 148,151 150,151 "/>
    </g>
    <g>
     <polygon class="fil0 str0" points="159,123 140,123 140,104 159,104 "/>
     <polygon class="fil0 str0" points="150,115 148,115 148,113 150,113 "/>
    </g>
    <g>
     <polygon class="fil0 str0" points="159,123 178,123 178,142 159,142 "/>
     <polygon class="fil0 str0" points="168,131 170,131 170,133 168,133 "/>
    </g>
    <g>
     <polygon class="fil0 str0" points="159,142 178,142 178,161 159,161 "/>
     <polygon class="fil0 str0" points="168,151 170,151 170,153 168,153 "/>
    </g>
    <g>
     <polygon class="fil0 str0" points="159,104 179,104 179,123 159,123 "/>
     <polygon class="fil0 str0" points="168,112 171,112 171,114 168,114 "/>
    </g>
    <g>
     <polygon class="fil0 str0" points="197,142 178,142 178,123 197,123 "/>
     <polygon class="fil0 str0" points="189,133 187,133 187,131 189,131 "/>
    </g>
    <g>
     <polygon class="fil0 str0" points="197,161 178,161 178,142 197,142 "/>
     <polygon class="fil0 str0" points="189,152 187,152 187,150 189,150 "/>
    </g>
    <g>
     <polygon class="fil0 str0" points="179,104 198,104 198,123 179,123 "/>
     <polygon class="fil0 str0" points="188,112 190,112 190,114 188,114 "/>
    </g>
    <g>
     <polygon class="fil0 str0" points="216,142 197,142 197,123 216,123 "/>
     <polygon class="fil0 str0" points="207,133 205,133 205,131 207,131 "/>
    </g>
    <g>
     <polygon class="fil0 str0" points="216,161 197,161 197,142 216,142 "/>
     <polygon class="fil0 str0" points="207,152 205,152 205,150 207,150 "/>
    </g>
    <g>
     <polygon class="fil0 str0" points="217,123 198,123 198,104 217,104 "/>
     <polygon class="fil0 str0" points="209,115 206,115 206,113 209,113 "/>
    </g>
    <g>
     <polygon class="fil0 str0" points="216,123 235,123 235,142 216,142 "/>
     <polygon class="fil0 str0" points="224,131 226,131 226,133 224,133 "/>
    </g>
    <g>
     <polygon class="fil0 str0" points="216,142 235,142 235,161 216,161 "/>
     <polygon class="fil0 str0" points="224,151 226,151 226,153 224,153 "/>
    </g>
   </g>
  </g>
 </g>
</svg>
