<?xml version="1.0" encoding="UTF-8"?>
<!DOCTYPE svg PUBLIC "-//W3C//DTD SVG 1.1//EN" "http://www.w3.org/Graphics/SVG/1.1/DTD/svg11.dtd">
<!-- Creator: CorelDRAW X8 -->
<svg xmlns="http://www.w3.org/2000/svg" xml:space="preserve" width="21cm" height="29.7cm" version="1.1" style="shape-rendering:geometricPrecision; text-rendering:geometricPrecision; image-rendering:optimizeQuality; fill-rule:evenodd; clip-rule:evenodd"
viewBox="0 0 210 297"
 xmlns:xlink="http://www.w3.org/1999/xlink">
 <defs>
  <style type="text/css">
   <![CDATA[
    .str0 {stroke:#373435;stroke-width:0.2}
    .fil0 {fill:none}
   ]]>
  </style>
 </defs>
 <g id="Camada_x0020_1">
  <metadata id="CorelCorpID_0Corel-Layer"/>
  <polygon class="fil0 str0" points="-35,126 -5,126 -5,156 -35,156 "/>
  <polygon class="fil0 str0" points="-5,126 25,126 25,156 -5,156 "/>
  <polygon class="fil0 str0" points="25,126 55,126 55,156 25,156 "/>
  <polygon class="fil0 str0" points="55,126 85,126 85,156 55,156 "/>
  <polygon class="fil0 str0" points="85,126 115,126 115,156 85,156 "/>
  <polygon class="fil0 str0" points="115,126 145,126 145,156 115,156 "/>
  <polygon class="fil0 str0" points="145,126 175,126 175,156 145,156 "/>
  <polygon class="fil0 str0" points="175,126 205,126 205,156 175,156 "/>
  <polygon class="fil0 str0" points="-35,96 -5,96 -5,126 -35,126 "/>
  <polygon class="fil0 str0" points="-5,96 25,96 25,126 -5,126 "/>
  <polygon class="fil0 str0" points="25,96 55,96 55,126 25,126 "/>
  <polygon class="fil0 str0" points="55,96 85,96 85,126 55,126 "/>
  <polygon class="fil0 str0" points="85,96 115,96 115,126 85,126 "/>
  <polygon class="fil0 str0" points="115,96 145,96 145,126 115,126 "/>
  <polygon class="fil0 str0" points="145,96 175,96 175,126 145,126 "/>
  <polygon class="fil0 str0" points="175,96 205,96 205,126 175,126 "/>
 </g>
</svg>
