<?xml version="1.0" encoding="UTF-8"?>
<!DOCTYPE svg PUBLIC "-//W3C//DTD SVG 1.1//EN" "http://www.w3.org/Graphics/SVG/1.1/DTD/svg11.dtd">
<!-- Creator: CorelDRAW X8 -->
<svg xmlns="http://www.w3.org/2000/svg" xml:space="preserve" width="21cm" height="29.7cm" version="1.1" style="shape-rendering:geometricPrecision; text-rendering:geometricPrecision; image-rendering:optimizeQuality; fill-rule:evenodd; clip-rule:evenodd"
viewBox="0 0 210 297"
 xmlns:xlink="http://www.w3.org/1999/xlink">
 <defs>
  <style type="text/css">
   <![CDATA[
    .str0 {stroke:#373435;stroke-width:0.0762}
    .fil0 {fill:none}
   ]]>
  </style>
 </defs>
 <g id="Camada_x0020_1">
  <metadata id="CorelCorpID_0Corel-Layer"/>
  <g id="_1871655393520">
   <g id="_2396687514048">
    <polygon class="fil0 str0" points="-197,339 -141,311 -85,339 -85,423 -141,451 -197,423 "/>
    <polygon class="fil0 str0" points="-1,479 55,451 111,479 111,563 55,591 -1,563 "/>
    <polygon class="fil0 str0" points="-225,619 -197,591 -113,591 -113,731 -169,731 -225,675 "/>
    <polygon class="fil0 str0" points="-113,507 -85,479 -1,479 -1,619 -57,619 -113,563 "/>
    <polygon class="fil0 str0" points="-281,507 -225,507 -197,535 -197,591 -225,619 -281,619 -309,591 -309,535 "/>
    <polygon class="fil0 str0" points="-85,619 -29,619 -1,647 -1,703 -29,731 -85,731 -113,703 -113,647 "/>
    <polygon class="fil0 str0" points="-309,311 -197,311 -197,451 -309,451 "/>
    <polygon class="fil0 str0" points="-1,591 111,591 111,731 -1,731 "/>
    <polygon class="fil0 str0" points="-253,451 -113,451 -113,591 -141,591 -253,479 "/>
    <polygon class="fil0 str0" points="-85,311 55,311 55,451 27,451 -85,339 "/>
    <polygon class="fil0 str0" points="-253,647 -197,731 -309,731 "/>
    <polygon class="fil0 str0" points="-57,395 -1,479 -113,479 "/>
    <polygon class="fil0 str0" points="55,311 111,311 111,367 55,367 "/>
    <polygon class="fil0 str0" points="55,367 111,367 111,423 55,423 "/>
   </g>
  </g>
 </g>
</svg>
