<?xml version="1.0" encoding="UTF-8"?>
<!DOCTYPE svg PUBLIC "-//W3C//DTD SVG 1.1//EN" "http://www.w3.org/Graphics/SVG/1.1/DTD/svg11.dtd">
<!-- Creator: CorelDRAW X8 -->
<svg xmlns="http://www.w3.org/2000/svg" xml:space="preserve" width="21cm" height="29.7cm" version="1.1" style="shape-rendering:geometricPrecision; text-rendering:geometricPrecision; image-rendering:optimizeQuality; fill-rule:evenodd; clip-rule:evenodd"
viewBox="0 0 210 297"
 xmlns:xlink="http://www.w3.org/1999/xlink">
 <defs>
  <style type="text/css">
   <![CDATA[
    .str0 {stroke:#373435;stroke-width:0.0762}
    .fil0 {fill:none}
   ]]>
  </style>
 </defs>
 <g id="Camada_x0020_1">
  <metadata id="CorelCorpID_0Corel-Layer"/>
  <polygon class="fil0 str0" points="807,233 863,233 863,289 807,289 "/>
  <polygon class="fil0 str0" points="499,541 555,541 555,597 499,597 "/>
  <polygon class="fil0 str0" points="499,233 555,233 555,289 499,289 "/>
  <polygon class="fil0 str0" points="947,345 1003,429 891,429 "/>
  <polygon class="fil0 str0" points="863,289 919,373 807,373 "/>
  <polygon class="fil0 str0" points="779,429 835,513 723,513 "/>
  <polygon class="fil0 str0" points="863,233 1003,233 1003,373 975,373 863,261 "/>
  <polygon class="fil0 str0" points="751,373 891,373 891,513 863,513 751,401 "/>
  <polygon class="fil0 str0" points="555,233 695,233 695,373 667,373 555,261 "/>
  <polygon class="fil0 str0" points="611,373 723,373 723,513 611,513 "/>
  <polygon class="fil0 str0" points="387,513 499,513 499,653 387,653 "/>
  <polygon class="fil0 str0" points="387,373 499,373 499,513 387,513 "/>
  <polygon class="fil0 str0" points="919,541 975,541 1003,569 1003,625 975,653 919,653 891,625 891,569 "/>
  <polygon class="fil0 str0" points="919,429 975,429 1003,457 1003,513 975,541 919,541 891,513 891,457 "/>
  <polygon class="fil0 str0" points="527,289 583,289 611,317 611,373 583,401 527,401 499,373 499,317 "/>
  <polygon class="fil0 str0" points="779,541 807,513 891,513 891,653 835,653 779,597 "/>
  <polygon class="fil0 str0" points="695,261 723,233 807,233 807,373 751,373 695,317 "/>
  <polygon class="fil0 str0" points="387,261 415,233 499,233 499,373 443,373 387,317 "/>
  <polygon class="fil0 str0" points="667,541 723,513 779,541 779,625 723,653 667,625 "/>
  <polygon class="fil0 str0" points="555,541 611,513 667,541 667,625 611,653 555,625 "/>
  <polygon class="fil0 str0" points="499,429 555,401 611,429 611,513 555,541 499,513 "/>
 </g>
</svg>
