<?xml version="1.0" encoding="UTF-8"?>
<!DOCTYPE svg PUBLIC "-//W3C//DTD SVG 1.1//EN" "http://www.w3.org/Graphics/SVG/1.1/DTD/svg11.dtd">
<!-- Creator: CorelDRAW X8 -->
<svg xmlns="http://www.w3.org/2000/svg" xml:space="preserve" width="21cm" height="29.7cm" version="1.1" style="shape-rendering:geometricPrecision; text-rendering:geometricPrecision; image-rendering:optimizeQuality; fill-rule:evenodd; clip-rule:evenodd"
viewBox="0 0 210 297"
 xmlns:xlink="http://www.w3.org/1999/xlink">
 <defs>
  <style type="text/css">
   <![CDATA[
    .str0 {stroke:#373435;stroke-width:0.0762}
    .fil0 {fill:none}
   ]]>
  </style>
 </defs>
 <g id="Camada_x0020_1">
  <metadata id="CorelCorpID_0Corel-Layer"/>
  <g id="_1871622628688">
   <g id="_2135767529360">
    <polygon class="fil0 str0" points="-267,424 -239,424 -239,466 -98,466 -98,424 -71,424 -71,494 -267,494 "/>
    <polygon class="fil0 str0" points="-267,745 -239,745 -239,788 -98,788 -98,745 -71,745 -71,816 -267,816 "/>
    <polygon class="fil0 str0" points="-267,382 -183,298 -98,382 -183,466 "/>
    <polygon class="fil0 str0" points="-267,620 -183,535 -98,620 -183,703 "/>
    <polygon class="fil0 str0" points="-253,284 -168,284 -168,256 -154,256 -98,311 -98,339 -140,339 -140,298 -225,298 -225,339 -253,339 "/>
    <polygon class="fil0 str0" points="-253,521 -168,521 -168,494 -154,494 -98,549 -98,578 -140,578 -140,535 -225,535 -225,578 -253,578 "/>
    <polygon class="fil0 str0" points="-239,731 -211,731 -211,703 -183,703 -183,731 -154,731 -154,759 -183,759 -183,788 -211,788 -211,759 -239,759 "/>
    <polygon class="fil0 str0" points="-154,703 -126,703 -126,676 -98,676 -98,703 -71,703 -71,731 -98,731 -98,759 -126,759 -126,731 -154,731 "/>
   </g>
  </g>
 </g>
</svg>
