<?xml version="1.0" encoding="UTF-8"?>
<!DOCTYPE svg PUBLIC "-//W3C//DTD SVG 1.1//EN" "http://www.w3.org/Graphics/SVG/1.1/DTD/svg11.dtd">
<!-- Creator: CorelDRAW X8 -->
<svg xmlns="http://www.w3.org/2000/svg" xml:space="preserve" width="21cm" height="29.7cm" version="1.1" style="shape-rendering:geometricPrecision; text-rendering:geometricPrecision; image-rendering:optimizeQuality; fill-rule:evenodd; clip-rule:evenodd"
viewBox="0 0 210 297"
 xmlns:xlink="http://www.w3.org/1999/xlink">
 <defs>
  <style type="text/css">
   <![CDATA[
    .str0 {stroke:#373435;stroke-width:0.0762}
    .fil0 {fill:none}
   ]]>
  </style>
 </defs>
 <g id="Camada_x0020_1">
  <metadata id="CorelCorpID_0Corel-Layer"/>
  <g id="_1871619491136">
   <g id="_2135899222448">
    <polygon class="fil0 str0" points="-72,659 -44,659 -44,700 96,700 96,659 124,659 124,729 -72,729 "/>
    <polygon class="fil0 str0" points="-72,729 -44,729 -44,770 96,770 96,729 124,729 124,799 -72,799 "/>
    <polygon class="fil0 str0" points="-72,799 -44,799 -44,840 96,840 96,799 124,799 124,869 -72,869 "/>
    <polygon class="fil0 str0" points="111,365 138,365 138,406 278,406 278,365 306,365 306,435 111,435 "/>
    <polygon class="fil0 str0" points="-72,491 12,406 96,491 12,575 "/>
    <polygon class="fil0 str0" points="-16,603 68,519 152,603 68,687 "/>
    <polygon class="fil0 str0" points="96,533 181,449 264,533 181,617 "/>
    <polygon class="fil0 str0" points="124,673 208,589 292,673 208,757 "/>
    <polygon class="fil0 str0" points="-58,393 26,393 26,365 41,365 96,421 96,449 54,449 54,406 -29,406 -29,449 -58,449 "/>
    <polygon class="fil0 str0" points="-44,336 41,336 41,309 54,309 111,365 111,393 68,393 68,351 -16,351 -16,393 -44,393 "/>
    <polygon class="fil0 str0" points="124,813 208,813 208,785 222,785 278,840 278,869 236,869 236,827 152,827 152,869 124,869 "/>
    <polygon class="fil0 str0" points="152,757 236,757 236,729 251,729 306,785 306,813 264,813 264,770 181,770 181,813 152,813 "/>
    <polygon class="fil0 str0" points="-72,631 -44,631 -44,603 -16,603 -16,631 12,631 12,659 -16,659 -16,687 -44,687 -44,659 -72,659 "/>
    <polygon class="fil0 str0" points="111,336 138,336 138,309 166,309 166,336 194,336 194,365 166,365 166,393 138,393 138,365 111,365 "/>
    <polygon class="fil0 str0" points="222,336 251,336 251,309 278,309 278,336 306,336 306,365 278,365 278,393 251,393 251,365 222,365 "/>
    <polygon class="fil0 str0" points="222,575 251,575 251,547 278,547 278,575 306,575 306,603 278,603 278,631 251,631 251,603 222,603 "/>
   </g>
  </g>
 </g>
</svg>
