<?xml version="1.0" encoding="UTF-8"?>
<!DOCTYPE svg PUBLIC "-//W3C//DTD SVG 1.1//EN" "http://www.w3.org/Graphics/SVG/1.1/DTD/svg11.dtd">
<!-- Creator: CorelDRAW X8 -->
<svg xmlns="http://www.w3.org/2000/svg" xml:space="preserve" width="21cm" height="29.7cm" version="1.1" style="shape-rendering:geometricPrecision; text-rendering:geometricPrecision; image-rendering:optimizeQuality; fill-rule:evenodd; clip-rule:evenodd"
viewBox="0 0 210 297"
 xmlns:xlink="http://www.w3.org/1999/xlink">
 <defs>
  <style type="text/css">
   <![CDATA[
    .str0 {stroke:#373435;stroke-width:0.0762}
    .fil0 {fill:none}
   ]]>
  </style>
 </defs>
 <g id="Camada_x0020_1">
  <metadata id="CorelCorpID_0Corel-Layer"/>
  <g id="_3027715093776">
   <polygon class="fil0 str0" points="3804,-730 3804,-716 3777,-713 3767,-710 3763,-708 3757,-711 3748,-714 3748,-730 "/>
   <polygon class="fil0 str0" points="3748,-687 3748,-701 3775,-704 3785,-707 3789,-709 3795,-706 3804,-703 3804,-687 "/>
   <polygon class="fil0 str0" points="3804,-687 3804,-673 3777,-670 3767,-667 3763,-665 3757,-668 3748,-671 3748,-687 "/>
   <polygon class="fil0 str0" points="3860,-730 3860,-716 3833,-713 3823,-710 3819,-708 3813,-711 3804,-714 3804,-730 "/>
   <polygon class="fil0 str0" points="3804,-692 3804,-706 3831,-709 3841,-712 3845,-714 3851,-711 3860,-708 3860,-692 "/>
   <polygon class="fil0 str0" points="3763,-651 3763,-665 3790,-668 3800,-671 3804,-673 3810,-670 3819,-667 3819,-651 "/>
   <polygon class="fil0 str0" points="3860,-692 3860,-678 3833,-675 3823,-672 3819,-670 3813,-673 3804,-676 3804,-692 "/>
   <polygon class="fil0 str0" points="3820,-657 3820,-671 3847,-674 3857,-677 3861,-679 3867,-676 3876,-673 3876,-657 "/>
   <polygon class="fil0 str0" points="3919,-717 3907,-716 3905,-714 3895,-717 3886,-718 3860,-719 3860,-730 3915,-730 3915,-725 3917,-722 3919,-722 "/>
   <polygon class="fil0 str0" points="3856,-716 3868,-717 3870,-719 3880,-716 3889,-715 3915,-714 3915,-703 3860,-703 3860,-708 3858,-711 3856,-711 "/>
   <polygon class="fil0 str0" points="3919,-690 3907,-689 3905,-687 3895,-690 3886,-691 3860,-692 3860,-703 3915,-703 3915,-698 3917,-695 3919,-695 "/>
   <polygon class="fil0 str0" points="3868,-688 3880,-689 3882,-691 3892,-688 3901,-687 3927,-686 3927,-675 3872,-675 3872,-680 3870,-683 3868,-683 "/>
   <polygon class="fil0 str0" points="3935,-662 3923,-661 3921,-659 3911,-662 3902,-663 3876,-664 3876,-675 3931,-675 3931,-670 3933,-667 3935,-667 "/>
   <polygon class="fil0 str0" points="3978,-717 3966,-716 3964,-714 3954,-717 3945,-718 3919,-719 3919,-730 3974,-730 3974,-725 3976,-722 3978,-722 "/>
   <polygon class="fil0 str0" points="3974,-701 3962,-700 3960,-698 3950,-701 3941,-702 3915,-703 3915,-714 3970,-714 3970,-709 3972,-706 3974,-706 "/>
   <polygon class="fil0 str0" points="3919,-699 3931,-700 3933,-702 3943,-699 3952,-698 3978,-697 3978,-686 3923,-686 3923,-691 3921,-694 3919,-694 "/>
   <polygon class="fil0 str0" points="3876,-652 3819,-652 3819,-657 3876,-657 "/>
   <polygon class="fil0 str0" points="3876,-659 3928,-659 3928,-654 3876,-654 "/>
   <polygon class="fil0 str0" points="3927,-686 3971,-686 3971,-681 3927,-681 "/>
   <polygon class="fil0 str0" points="3969,-676 3927,-676 3927,-681 3969,-681 "/>
   <polygon class="fil0 str0" points="3936,-662 3940,-660 3942,-652 3940,-651 3932,-651 3930,-652 3932,-660 "/>
   <polygon class="fil0 str0" points="3941,-676 3945,-674 3947,-666 3945,-665 3937,-665 3935,-666 3937,-674 "/>
   <polygon class="fil0 str0" points="3945,-654 3941,-656 3939,-664 3941,-665 3949,-665 3951,-664 3949,-656 "/>
   <polygon class="fil0 str0" points="3754,-669 3758,-667 3760,-659 3758,-658 3750,-658 3748,-659 3750,-667 "/>
   <polygon class="fil0 str0" points="3950,-665 3946,-667 3944,-675 3946,-676 3954,-676 3956,-675 3954,-667 "/>
   <polygon class="fil0 str0" points="3954,-663 3958,-661 3960,-653 3958,-652 3950,-652 3948,-653 3950,-661 "/>
   <polygon class="fil0 str0" points="3960,-676 3964,-674 3966,-666 3964,-665 3956,-665 3954,-666 3956,-674 "/>
   <polygon class="fil0 str0" points="3963,-654 3959,-656 3957,-664 3959,-665 3967,-665 3969,-664 3967,-656 "/>
   <polygon class="fil0 str0" points="3762,-653 3748,-653 3748,-658 3762,-658 "/>
   <polygon class="fil0 str0" points="3989,-723 3974,-727 3976,-730 3989,-729 "/>
   <polygon class="fil0 str0" points="3978,-726 3993,-722 3991,-719 3978,-720 "/>
   <polygon class="fil0 str0" points="3991,-711 3976,-715 3978,-718 3991,-717 "/>
   <polygon class="fil0 str0" points="3970,-716 3985,-712 3983,-709 3970,-710 "/>
   <polygon class="fil0 str0" points="3989,-699 3974,-703 3976,-706 3989,-705 "/>
   <polygon class="fil0 str0" points="3978,-702 3993,-698 3991,-695 3978,-696 "/>
   <polygon class="fil0 str0" points="3993,-689 3978,-693 3980,-696 3993,-695 "/>
   <polygon class="fil0 str0" points="3978,-693 3993,-689 3991,-686 3978,-687 "/>
   <polygon class="fil0 str0" points="3984,-681 3971,-681 3971,-686 3984,-686 "/>
   <polygon class="fil0 str0" points="3977,-673 3974,-671 3969,-673 3969,-681 3975,-681 "/>
   <polygon class="fil0 str0" points="3976,-679 3979,-681 3984,-679 3984,-671 3978,-671 "/>
   <polygon class="fil0 str0" points="3968,-671 3971,-673 3976,-671 3976,-663 3970,-663 "/>
   <polygon class="fil0 str0" points="3984,-663 3981,-661 3976,-663 3976,-671 3982,-671 "/>
   <polygon class="fil0 str0" points="3966,-655 3981,-654 3981,-651 3966,-651 "/>
   <polygon class="fil0 str0" points="3801,-707 3798,-705 3793,-707 3793,-715 3799,-715 "/>
   <polygon class="fil0 str0" points="3756,-704 3753,-702 3748,-704 3748,-712 3754,-712 "/>
   <polygon class="fil0 str0" points="3971,-663 3973,-662 3974,-657 3973,-656 3969,-656 3968,-657 3969,-662 "/>
   <polygon class="fil0 str0" points="3868,-681 3865,-679 3860,-681 3860,-689 3866,-689 "/>
   <polygon class="fil0 str0" points="3756,-708 3768,-708 3768,-703 3756,-703 "/>
   <polygon class="fil0 str0" points="3768,-710 3780,-710 3780,-705 3768,-705 "/>
   <polygon class="fil0 str0" points="3986,-705 3972,-706 3972,-709 3986,-709 "/>
   <polygon class="fil0 str0" points="3780,-713 3793,-712 3793,-709 3780,-709 "/>
   <polygon class="fil0 str0" points="3979,-661 3982,-663 3987,-661 3987,-653 3981,-653 "/>
   <polygon class="fil0 str0" points="3897,-663 3910,-662 3910,-659 3897,-659 "/>
   <polygon class="fil0 str0" points="3897,-653 3918,-653 3918,-651 3897,-651 "/>
   <polygon class="fil0 str0" points="3897,-659 3876,-659 3876,-661 3897,-661 "/>
   <polygon class="fil0 str0" points="3907,-716 3928,-716 3928,-714 3907,-714 "/>
   <polygon class="fil0 str0" points="3940,-716 3919,-716 3919,-718 3940,-718 "/>
   <polygon class="fil0 str0" points="3860,-691 3881,-691 3881,-689 3860,-689 "/>
   <polygon class="fil0 str0" points="3928,-716 3949,-716 3949,-714 3928,-714 "/>
   <polygon class="fil0 str0" points="3876,-663 3897,-663 3897,-661 3876,-661 "/>
   <polygon class="fil0 str0" points="3897,-651 3876,-651 3876,-653 3897,-653 "/>
   <polygon class="fil0 str0" points="3987,-686 3989,-685 3990,-680 3989,-679 3985,-679 3984,-680 3985,-685 "/>
   <polygon class="fil0 str0" points="3934,-669 3932,-670 3931,-675 3932,-676 3936,-676 3937,-675 3936,-670 "/>
   <polygon class="fil0 str0" points="3976,-655 3974,-656 3973,-661 3974,-662 3978,-662 3979,-661 3978,-656 "/>
  </g>
 </g>
</svg>
