<?xml version="1.0" encoding="UTF-8"?>
<!DOCTYPE svg PUBLIC "-//W3C//DTD SVG 1.1//EN" "http://www.w3.org/Graphics/SVG/1.1/DTD/svg11.dtd">
<!-- Creator: CorelDRAW X8 -->
<svg xmlns="http://www.w3.org/2000/svg" xml:space="preserve" width="21cm" height="29.7cm" version="1.1" style="shape-rendering:geometricPrecision; text-rendering:geometricPrecision; image-rendering:optimizeQuality; fill-rule:evenodd; clip-rule:evenodd"
viewBox="0 0 210 297"
 xmlns:xlink="http://www.w3.org/1999/xlink">
 <defs>
  <style type="text/css">
   <![CDATA[
    .str0 {stroke:#373435;stroke-width:0.0762}
    .fil0 {fill:none}
   ]]>
  </style>
 </defs>
 <g id="Layer_x0020_1">
  <metadata id="CorelCorpID_0Corel-Layer"/>
  <g id="_1871621103488">
   <g>
    <g>
     <polygon class="fil0 str0" points="66,249 79,250 92,248 95,251 102,251 106,258 103,260 103,266 106,268 102,275 95,275 92,278 79,276 66,277 "/>
    </g>
    <g>
     <polygon class="fil0 str0" points="106,311 94,311 80,312 77,309 70,310 67,302 69,300 69,294 67,293 70,285 77,286 80,282 94,284 106,284 "/>
    </g>
    <g>
     <polygon class="fil0 str0" points="109,287 122,288 133,286 137,290 142,290 143,298 142,304 108,304 "/>
    </g>
    <g>
     <polygon class="fil0 str0" points="110,251 133,249 139,257 139,262 133,270 110,268 "/>
    </g>
    <g>
     <polygon class="fil0 str0" points="164,282 141,284 135,276 135,271 141,263 164,265 "/>
    </g>
    <g>
     <polygon class="fil0 str0" points="185,262 163,264 157,256 157,251 163,243 185,245 "/>
    </g>
    <g>
     <polygon class="fil0 str0" points="189,316 166,318 161,310 161,305 166,297 189,299 "/>
    </g>
    <g>
     <polygon class="fil0 str0" points="170,271 202,271 205,276 204,283 198,284 195,286 184,285 170,286 "/>
    </g>
    <g>
     <polygon class="fil0 str0" points="226,261 193,261 191,256 192,249 198,249 201,246 212,248 226,247 "/>
    </g>
    <g>
     <polygon class="fil0 str0" points="194,294 207,295 218,293 221,297 226,297 228,305 227,311 193,311 "/>
    </g>
    <g>
     <polygon class="fil0 str0" points="66,319 106,319 106,322 66,322 "/>
    </g>
    <g>
     <polygon class="fil0 str0" points="79,315 119,315 119,318 79,318 "/>
    </g>
    <g>
     <polygon class="fil0 str0" points="132,318 120,318 120,309 132,309 "/>
    </g>
    <g>
     <polygon class="fil0 str0" points="145,320 133,320 133,311 145,311 "/>
    </g>
    <g>
     <polygon class="fil0 str0" points="160,296 147,296 147,288 160,288 "/>
    </g>
    <g>
     <polygon class="fil0 str0" points="154,248 149,247 144,248 139,247 133,248 134,243 144,244 153,243 "/>
    </g>
    <g>
     <polygon class="fil0 str0" points="195,312 207,312 207,320 195,320 "/>
    </g>
    <g>
     <polygon class="fil0 str0" points="161,291 167,292 172,291 177,292 182,291 181,296 172,295 163,296 "/>
    </g>
    <g>
     <polygon class="fil0 str0" points="213,266 208,266 203,266 198,266 192,266 193,262 203,263 212,262 "/>
    </g>
    <g>
     <polygon class="fil0 str0" points="225,272 220,271 215,272 210,271 204,272 206,267 215,268 224,267 "/>
    </g>
    <g>
     <polygon class="fil0 str0" points="227,277 216,275 206,277 205,275 216,273 228,275 "/>
    </g>
    <g>
     <polygon class="fil0 str0" points="201,243 212,245 222,243 223,245 212,247 200,245 "/>
    </g>
    <g>
     <polygon class="fil0 str0" points="209,312 219,313 230,312 231,313 219,316 208,313 "/>
    </g>
    <g>
     <polygon class="fil0 str0" points="209,316 219,317 229,316 230,317 219,320 208,317 "/>
    </g>
   </g>
  </g>
 </g>
</svg>
