<?xml version="1.0" encoding="UTF-8"?>
<!DOCTYPE svg PUBLIC "-//W3C//DTD SVG 1.1//EN" "http://www.w3.org/Graphics/SVG/1.1/DTD/svg11.dtd">
<!-- Creator: CorelDRAW X8 -->
<svg xmlns="http://www.w3.org/2000/svg" xml:space="preserve" width="21cm" height="29.7cm" version="1.1" style="shape-rendering:geometricPrecision; text-rendering:geometricPrecision; image-rendering:optimizeQuality; fill-rule:evenodd; clip-rule:evenodd"
viewBox="0 0 210 297"
 xmlns:xlink="http://www.w3.org/1999/xlink">
 <defs>
  <style type="text/css">
   <![CDATA[
    .str0 {stroke:#373435;stroke-width:0.0762}
    .fil0 {fill:none}
   ]]>
  </style>
 </defs>
 <g id="Layer_x0020_1">
  <metadata id="CorelCorpID_0Corel-Layer"/>
  <g id="_1774790101904">
   <g>
    <g>
     <polygon class="fil0 str0" points="555,-174 611,-202 667,-174 667,-90 611,-62 555,-90 "/>
    </g>
    <g>
     <polygon class="fil0 str0" points="555,-28 611,-56 667,-28 667,56 611,84 555,56 "/>
    </g>
    <g>
     <polygon class="fil0 str0" points="750,70 666,70 694,14 666,-42 666,-70 722,-70 778,-14 778,42 "/>
    </g>
    <g>
     <polygon class="fil0 str0" points="709,-202 793,-202 765,-146 793,-90 793,-62 737,-62 681,-118 681,-174 "/>
    </g>
    <g>
     <polygon class="fil0 str0" points="771,-57 911,-57 911,83 883,83 855,27 827,-1 771,-29 "/>
    </g>
    <g>
     <polygon class="fil0 str0" points="800,-202 940,-202 940,-62 912,-62 884,-118 856,-146 800,-174 "/>
    </g>
    <g>
     <polygon class="fil0 str0" points="944,-57 1000,-57 1028,-29 1028,27 1000,55 944,55 916,27 916,-29 "/>
    </g>
    <g>
     <polygon class="fil0 str0" points="1029,-62 973,-62 945,-90 945,-146 973,-174 1029,-174 1057,-146 1057,-90 "/>
    </g>
    <g>
     <polygon class="fil0 str0" points="1136,85 1080,57 1024,85 1052,29 1024,-55 1080,-27 1136,-55 1108,1 "/>
    </g>
    <g>
     <polygon class="fil0 str0" points="1082,-118 1026,-202 1138,-202 "/>
    </g>
    <g>
     <polygon class="fil0 str0" points="812,-1 868,83 756,83 "/>
    </g>
    <g>
     <polygon class="fil0 str0" points="798,-139 854,-139 854,-83 798,-83 "/>
    </g>
    <g>
     <polygon class="fil0 str0" points="1062,-111 1118,-111 1118,-55 1062,-55 "/>
    </g>
   </g>
  </g>
 </g>
</svg>
