<?xml version="1.0" encoding="UTF-8"?>
<!DOCTYPE svg PUBLIC "-//W3C//DTD SVG 1.1//EN" "http://www.w3.org/Graphics/SVG/1.1/DTD/svg11.dtd">
<!-- Creator: CorelDRAW X8 -->
<svg xmlns="http://www.w3.org/2000/svg" xml:space="preserve" width="21cm" height="29.7cm" version="1.1" style="shape-rendering:geometricPrecision; text-rendering:geometricPrecision; image-rendering:optimizeQuality; fill-rule:evenodd; clip-rule:evenodd"
viewBox="0 0 210 297"
 xmlns:xlink="http://www.w3.org/1999/xlink">
 <defs>
  <style type="text/css">
   <![CDATA[
    .str0 {stroke:#373435;stroke-width:0.0762}
    .fil0 {fill:none}
   ]]>
  </style>
 </defs>
 <g id="Layer_x0020_1">
  <metadata id="CorelCorpID_0Corel-Layer"/>
  <g id="_1774790094064">
   <g>
    <g>
     <polygon class="fil0 str0" points="718,-210 802,-210 774,-154 802,-98 802,-70 746,-70 690,-126 690,-182 "/>
    </g>
    <g>
     <polygon class="fil0 str0" points="919,-98 863,-70 807,-98 807,-182 863,-210 919,-182 "/>
    </g>
    <g>
     <polygon class="fil0 str0" points="924,-210 1064,-210 1064,-70 1036,-70 1008,-126 980,-154 924,-182 "/>
    </g>
    <g>
     <polygon class="fil0 str0" points="809,-91 865,-63 921,-91 893,-35 921,49 865,21 809,49 837,-7 "/>
    </g>
    <g>
     <polygon class="fil0 str0" points="790,47 734,47 706,19 706,-37 734,-65 790,-65 818,-37 818,19 "/>
    </g>
    <g>
     <polygon class="fil0 str0" points="957,-122 1013,-38 901,-38 "/>
    </g>
    <g>
     <polygon class="fil0 str0" points="919,-33 975,-33 975,23 919,23 "/>
    </g>
   </g>
  </g>
 </g>
</svg>
