<?xml version="1.0" encoding="UTF-8"?>
<!DOCTYPE svg PUBLIC "-//W3C//DTD SVG 1.1//EN" "http://www.w3.org/Graphics/SVG/1.1/DTD/svg11.dtd">
<!-- Creator: CorelDRAW X8 -->
<svg xmlns="http://www.w3.org/2000/svg" xml:space="preserve" width="21cm" height="29.7cm" version="1.1" style="shape-rendering:geometricPrecision; text-rendering:geometricPrecision; image-rendering:optimizeQuality; fill-rule:evenodd; clip-rule:evenodd"
viewBox="0 0 210 297"
 xmlns:xlink="http://www.w3.org/1999/xlink">
 <defs>
  <style type="text/css">
   <![CDATA[
    .str0 {stroke:#373435;stroke-width:0.0762}
    .fil0 {fill:none}
   ]]>
  </style>
 </defs>
 <g id="Layer_x0020_1">
  <metadata id="CorelCorpID_0Corel-Layer"/>
  <g id="_1774791045168">
   <g>
    <g>
     <polygon class="fil0 str0" points="429,-274 485,-302 541,-274 541,-190 485,-162 429,-190 "/>
    </g>
    <g>
     <polygon class="fil0 str0" points="546,-274 602,-302 658,-274 658,-190 602,-162 546,-190 "/>
    </g>
    <g>
     <polygon class="fil0 str0" points="775,-190 719,-162 663,-190 663,-274 719,-302 775,-274 "/>
    </g>
    <g>
     <polygon class="fil0 str0" points="864,-162 780,-162 808,-218 780,-274 780,-302 836,-302 892,-246 892,-190 "/>
    </g>
    <g>
     <polygon class="fil0 str0" points="968,-162 884,-162 912,-218 884,-274 884,-302 940,-302 996,-246 996,-190 "/>
    </g>
    <g>
     <polygon class="fil0 str0" points="1072,-162 988,-162 1016,-218 988,-274 988,-302 1044,-302 1100,-246 1100,-190 "/>
    </g>
    <g>
     <polygon class="fil0 str0" points="787,-38 647,-38 647,-178 675,-178 703,-122 731,-94 787,-66 "/>
    </g>
    <g>
     <polygon class="fil0 str0" points="569,-30 429,-30 429,-170 457,-170 485,-114 513,-86 569,-58 "/>
    </g>
    <g>
     <polygon class="fil0 str0" points="723,-157 863,-157 863,-17 835,-17 807,-73 779,-101 723,-129 "/>
    </g>
    <g>
     <polygon class="fil0 str0" points="952,-45 896,-45 868,-73 868,-129 896,-157 952,-157 980,-129 980,-73 "/>
    </g>
    <g>
     <polygon class="fil0 str0" points="1013,-157 1069,-157 1097,-129 1097,-73 1069,-45 1013,-45 985,-73 985,-129 "/>
    </g>
    <g>
     <polygon class="fil0 str0" points="1097,86 1041,58 985,86 1013,30 985,-54 1041,-26 1097,-54 1069,2 "/>
    </g>
    <g>
     <polygon class="fil0 str0" points="457,-25 513,-25 541,3 541,59 513,87 457,87 429,59 429,3 "/>
    </g>
    <g>
     <polygon class="fil0 str0" points="870,-33 926,-5 982,-33 954,23 982,107 926,79 870,107 898,51 "/>
    </g>
    <g>
     <polygon class="fil0 str0" points="786,109 730,81 674,109 702,53 674,-31 730,-3 786,-31 758,25 "/>
    </g>
    <g>
     <polygon class="fil0 str0" points="605,-72 661,12 549,12 "/>
    </g>
    <g>
     <polygon class="fil0 str0" points="574,19 630,103 518,103 "/>
    </g>
    <g>
     <polygon class="fil0 str0" points="554,-73 498,-157 610,-157 "/>
    </g>
    <g>
     <polygon class="fil0 str0" points="673,73 617,73 617,17 673,17 "/>
    </g>
    <g>
     <polygon class="fil0 str0" points="775,4 831,4 831,60 775,60 "/>
    </g>
    <g>
     <polygon class="fil0 str0" points="792,65 848,65 848,121 792,121 "/>
    </g>
   </g>
  </g>
 </g>
</svg>
