<?xml version="1.0" encoding="UTF-8"?>
<!DOCTYPE svg PUBLIC "-//W3C//DTD SVG 1.1//EN" "http://www.w3.org/Graphics/SVG/1.1/DTD/svg11.dtd">
<!-- Creator: CorelDRAW X8 -->
<svg xmlns="http://www.w3.org/2000/svg" xml:space="preserve" width="21cm" height="29.7cm" version="1.1" style="shape-rendering:geometricPrecision; text-rendering:geometricPrecision; image-rendering:optimizeQuality; fill-rule:evenodd; clip-rule:evenodd"
viewBox="0 0 210 297"
 xmlns:xlink="http://www.w3.org/1999/xlink">
 <defs>
  <style type="text/css">
   <![CDATA[
    .str0 {stroke:#373435;stroke-width:0.0762}
    .fil0 {fill:none}
   ]]>
  </style>
 </defs>
 <g id="Camada_x0020_1">
  <metadata id="CorelCorpID_0Corel-Layer"/>
  <g id="_1774778654512">
   <g>
    <g>
     <polygon class="fil0 str0" points="-31,124 -42,111 -53,101 -84,122 -84,171 -50,171 -38,143 "/>
    </g>
    <g>
     <polygon class="fil0 str0" points="-84,209 -83,204 -81,179 -37,170 -44,189 -33,202 "/>
    </g>
    <g>
     <polygon class="fil0 str0" points="-37,146 -27,135 -16,171 -8,201 -30,197 "/>
    </g>
    <g>
     <polygon class="fil0 str0" points="7,126 -23,132 -44,101 7,102 "/>
    </g>
    <g>
     <polygon class="fil0 str0" points="-21,134 -12,178 16,150 16,136 "/>
    </g>
    <g>
     <polygon class="fil0 str0" points="-7,195 -7,176 29,165 35,195 "/>
    </g>
    <g>
     <polygon class="fil0 str0" points="18,165 18,125 46,137 "/>
    </g>
    <g>
     <polygon class="fil0 str0" points="49,149 47,186 45,211 37,213 37,149 "/>
    </g>
    <g>
     <polygon class="fil0 str0" points="10,122 13,111 43,103 43,122 "/>
    </g>
    <g>
     <polygon class="fil0 str0" points="32,197 34,205 7,200 -4,197 "/>
    </g>
   </g>
  </g>
 </g>
</svg>
