<?xml version="1.0" encoding="UTF-8"?>
<!DOCTYPE svg PUBLIC "-//W3C//DTD SVG 1.1//EN" "http://www.w3.org/Graphics/SVG/1.1/DTD/svg11.dtd">
<!-- Creator: CorelDRAW X8 -->
<svg xmlns="http://www.w3.org/2000/svg" xml:space="preserve" width="21cm" height="29.7cm" version="1.1" style="shape-rendering:geometricPrecision; text-rendering:geometricPrecision; image-rendering:optimizeQuality; fill-rule:evenodd; clip-rule:evenodd"
viewBox="0 0 210 297"
 xmlns:xlink="http://www.w3.org/1999/xlink">
 <defs>
  <style type="text/css">
   <![CDATA[
    .str0 {stroke:#373435;stroke-width:0.0762}
    .fil0 {fill:none}
   ]]>
  </style>
 </defs>
 <g id="Camada_x0020_1">
  <metadata id="CorelCorpID_0Corel-Layer"/>
  <g id="_1774781132992">
   <g>
    <g>
     <polygon class="fil0 str0" points="92,48 58,83 73,101 120,96 "/>
    </g>
    <g>
     <polygon class="fil0 str0" points="94,48 160,48 120,68 116,86 "/>
    </g>
    <g>
     <polygon class="fil0 str0" points="154,58 150,97 124,93 122,69 "/>
    </g>
    <g>
     <polygon class="fil0 str0" points="188,58 156,58 156,99 174,91 "/>
    </g>
    <g>
     <polygon class="fil0 str0" points="58,139 58,95 98,119 "/>
    </g>
    <g>
     <polygon class="fil0 str0" points="95,133 127,138 124,115 109,100 "/>
    </g>
    <g>
     <polygon class="fil0 str0" points="203,55 176,91 203,111 "/>
    </g>
    <g>
     <polygon class="fil0 str0" points="184,100 166,96 156,102 157,117 160,140 "/>
    </g>
    <g>
     <polygon class="fil0 str0" points="79,158 111,138 72,134 71,140 "/>
    </g>
    <g>
     <polygon class="fil0 str0" points="150,99 150,133 115,99 "/>
    </g>
    <g>
     <polygon class="fil0 str0" points="126,119 129,142 155,148 162,146 "/>
    </g>
    <g>
     <polygon class="fil0 str0" points="166,136 171,156 203,136 "/>
    </g>
    <g>
     <polygon class="fil0 str0" points="136,147 118,162 103,147 "/>
    </g>
    <g>
     <polygon class="fil0 str0" points="58,80 78,53 58,58 "/>
    </g>
    <g>
     <polygon class="fil0 str0" points="205,145 206,160 180,154 "/>
    </g>
   </g>
  </g>
 </g>
</svg>
