<?xml version="1.0" encoding="UTF-8"?>
<!DOCTYPE svg PUBLIC "-//W3C//DTD SVG 1.1//EN" "http://www.w3.org/Graphics/SVG/1.1/DTD/svg11.dtd">
<!-- Creator: CorelDRAW X8 -->
<svg xmlns="http://www.w3.org/2000/svg" xml:space="preserve" width="21cm" height="29.7cm" version="1.1" style="shape-rendering:geometricPrecision; text-rendering:geometricPrecision; image-rendering:optimizeQuality; fill-rule:evenodd; clip-rule:evenodd"
viewBox="0 0 210 297"
 xmlns:xlink="http://www.w3.org/1999/xlink">
 <defs>
  <style type="text/css">
   <![CDATA[
    .str0 {stroke:#373435;stroke-width:0.0762}
    .fil0 {fill:none}
   ]]>
  </style>
 </defs>
 <g id="Camada_x0020_1">
  <metadata id="CorelCorpID_0Corel-Layer"/>
  <g id="_1774780034736">
   <g>
    <g>
     <polygon class="fil0 str0" points="22,86 36,86 36,95 22,95 "/>
    </g>
    <g>
     <polygon class="fil0 str0" points="22,111 22,97 36,97 36,111 "/>
    </g>
    <g>
     <polygon class="fil0 str0" points="32,113 22,113 22,123 32,127 "/>
    </g>
    <g>
     <polygon class="fil0 str0" points="50,127 50,113 36,113 "/>
    </g>
    <g>
     <polygon class="fil0 str0" points="38,96 38,86 48,86 48,96 "/>
    </g>
    <g>
     <polygon class="fil0 str0" points="39,98 53,98 46,110 "/>
    </g>
    <g>
     <polygon class="fil0 str0" points="52,105 62,105 62,115 52,115 "/>
    </g>
    <g>
     <polygon class="fil0 str0" points="50,95 60,91 60,86 50,86 "/>
    </g>
    <g>
     <polygon class="fil0 str0" points="62,117 53,117 62,131 "/>
    </g>
    <g>
     <polygon class="fil0 str0" points="34,128 34,114 41,121 "/>
    </g>
    <g>
     <polygon class="fil0 str0" points="47,128 47,133 38,133 38,128 "/>
    </g>
    <g>
     <polygon class="fil0 str0" points="51,132 55,124 59,132 "/>
    </g>
   </g>
  </g>
 </g>
</svg>
