<?xml version="1.0" encoding="UTF-8"?>
<!DOCTYPE svg PUBLIC "-//W3C//DTD SVG 1.1//EN" "http://www.w3.org/Graphics/SVG/1.1/DTD/svg11.dtd">
<!-- Creator: CorelDRAW X8 -->
<svg xmlns="http://www.w3.org/2000/svg" xml:space="preserve" width="21cm" height="29.7cm" version="1.1" style="shape-rendering:geometricPrecision; text-rendering:geometricPrecision; image-rendering:optimizeQuality; fill-rule:evenodd; clip-rule:evenodd"
viewBox="0 0 210 297"
 xmlns:xlink="http://www.w3.org/1999/xlink"
 enable-background="new 0 0 1728 864">
 <defs>
  <style type="text/css">
   <![CDATA[
    .str0 {stroke:#373435;stroke-width:0.0572}
    .fil0 {fill:none}
   ]]>
  </style>
 </defs>
 <g id="Camada_x0020_1">
  <metadata id="CorelCorpID_0Corel-Layer"/>
  <g id="Grid" display="none">
  </g>
  <polygon class="fil0 str0" points="429,953 431,953 431,951 429,951 "/>
  <polygon class="fil0 str0" points="416,1019 435,1038 588,1038 607,1019 "/>
  <polygon class="fil0 str0" points="416,1045 435,1064 588,1064 607,1045 "/>
  <polygon class="fil0 str0" points="454,1056 456,1056 456,1054 454,1054 "/>
  <polygon class="fil0 str0" points="462,1056 464,1056 464,1054 462,1054 "/>
  <polygon class="fil0 str0" points="469,1056 471,1056 471,1054 469,1054 "/>
  <polygon class="fil0 str0" points="476,1056 478,1056 478,1054 476,1054 "/>
  <polygon class="fil0 str0" points="483,1056 485,1056 485,1054 483,1054 "/>
  <polygon class="fil0 str0" points="490,1056 492,1056 492,1054 490,1054 "/>
  <polygon class="fil0 str0" points="497,1056 499,1056 499,1054 497,1054 "/>
  <polygon class="fil0 str0" points="504,1056 506,1056 506,1054 504,1054 "/>
  <polygon class="fil0 str0" points="512,1056 514,1056 514,1054 512,1054 "/>
  <polygon class="fil0 str0" points="519,1056 521,1056 521,1054 519,1054 "/>
  <polygon class="fil0 str0" points="526,1056 528,1056 528,1054 526,1054 "/>
  <polygon class="fil0 str0" points="533,1056 535,1056 535,1054 533,1054 "/>
  <polygon class="fil0 str0" points="540,1056 542,1056 542,1054 540,1054 "/>
  <polygon class="fil0 str0" points="547,1056 549,1056 549,1054 547,1054 "/>
  <polygon class="fil0 str0" points="554,1056 556,1056 556,1054 554,1054 "/>
  <polygon class="fil0 str0" points="562,1056 564,1056 564,1054 562,1054 "/>
  <polygon class="fil0 str0" points="420,962 439,962 439,943 420,943 "/>
  <polygon class="fil0 str0" points="451,953 453,953 453,951 451,951 "/>
  <polygon class="fil0 str0" points="443,962 462,962 462,943 443,943 "/>
  <polygon class="fil0 str0" points="475,953 477,953 477,951 475,951 "/>
  <polygon class="fil0 str0" points="466,962 485,962 485,943 466,943 "/>
  <polygon class="fil0 str0" points="498,953 500,953 500,951 498,951 "/>
  <polygon class="fil0 str0" points="490,962 509,962 509,943 490,943 "/>
  <polygon class="fil0 str0" points="521,953 523,953 523,951 521,951 "/>
  <polygon class="fil0 str0" points="513,962 532,962 532,943 513,943 "/>
  <polygon class="fil0 str0" points="544,953 546,953 546,951 544,951 "/>
  <polygon class="fil0 str0" points="536,962 555,962 555,943 536,943 "/>
  <polygon class="fil0 str0" points="567,953 569,953 569,951 567,951 "/>
  <polygon class="fil0 str0" points="559,962 578,962 578,943 559,943 "/>
  <polygon class="fil0 str0" points="591,953 593,953 593,951 591,951 "/>
  <polygon class="fil0 str0" points="582,962 601,962 601,943 582,943 "/>
  <polygon class="fil0 str0" points="429,976 431,976 431,974 429,974 "/>
  <polygon class="fil0 str0" points="420,985 439,985 439,966 420,966 "/>
  <polygon class="fil0 str0" points="451,976 453,976 453,974 451,974 "/>
  <polygon class="fil0 str0" points="443,985 462,985 462,966 443,966 "/>
  <polygon class="fil0 str0" points="475,976 477,976 477,974 475,974 "/>
  <polygon class="fil0 str0" points="466,985 485,985 485,966 466,966 "/>
  <polygon class="fil0 str0" points="498,976 500,976 500,974 498,974 "/>
  <polygon class="fil0 str0" points="490,985 509,985 509,966 490,966 "/>
  <polygon class="fil0 str0" points="521,976 523,976 523,974 521,974 "/>
  <polygon class="fil0 str0" points="513,985 532,985 532,966 513,966 "/>
  <polygon class="fil0 str0" points="544,976 546,976 546,974 544,974 "/>
  <polygon class="fil0 str0" points="536,985 555,985 555,966 536,966 "/>
  <polygon class="fil0 str0" points="567,976 569,976 569,974 567,974 "/>
  <polygon class="fil0 str0" points="559,985 578,985 578,966 559,966 "/>
  <polygon class="fil0 str0" points="591,976 593,976 593,974 591,974 "/>
  <polygon class="fil0 str0" points="582,985 601,985 601,966 582,966 "/>
  <polygon class="fil0 str0" points="429,1000 431,1000 431,998 429,998 "/>
  <polygon class="fil0 str0" points="420,1008 439,1008 439,989 420,989 "/>
  <polygon class="fil0 str0" points="451,1000 453,1000 453,998 451,998 "/>
  <polygon class="fil0 str0" points="443,1008 462,1008 462,989 443,989 "/>
  <polygon class="fil0 str0" points="475,1000 477,1000 477,998 475,998 "/>
  <polygon class="fil0 str0" points="466,1008 485,1008 485,989 466,989 "/>
  <polygon class="fil0 str0" points="498,1000 500,1000 500,998 498,998 "/>
  <polygon class="fil0 str0" points="490,1008 509,1008 509,989 490,989 "/>
  <polygon class="fil0 str0" points="521,1000 523,1000 523,998 521,998 "/>
  <polygon class="fil0 str0" points="513,1008 532,1008 532,989 513,989 "/>
  <polygon class="fil0 str0" points="544,1000 546,1000 546,998 544,998 "/>
  <polygon class="fil0 str0" points="536,1008 555,1008 555,989 536,989 "/>
  <polygon class="fil0 str0" points="567,1000 569,1000 569,998 567,998 "/>
  <polygon class="fil0 str0" points="559,1008 578,1008 578,989 559,989 "/>
  <polygon class="fil0 str0" points="591,1000 593,1000 593,998 591,998 "/>
  <polygon class="fil0 str0" points="582,1008 601,1008 601,989 582,989 "/>
 </g>
</svg>
