<?xml version="1.0" encoding="UTF-8"?>
<!DOCTYPE svg PUBLIC "-//W3C//DTD SVG 1.1//EN" "http://www.w3.org/Graphics/SVG/1.1/DTD/svg11.dtd">
<!-- Creator: CorelDRAW X8 -->
<svg xmlns="http://www.w3.org/2000/svg" xml:space="preserve" width="21cm" height="29.7cm" version="1.1" style="shape-rendering:geometricPrecision; text-rendering:geometricPrecision; image-rendering:optimizeQuality; fill-rule:evenodd; clip-rule:evenodd"
viewBox="0 0 210 297"
 xmlns:xlink="http://www.w3.org/1999/xlink">
 <defs>
  <style type="text/css">
   <![CDATA[
    .str3 {stroke:#373435;stroke-width:0.1343}
    .str1 {stroke:#373435;stroke-width:0.1993}
    .str2 {stroke:#373435;stroke-width:0.1997}
    .str0 {stroke:#373435;stroke-width:0.2}
    .str4 {stroke:#373435;stroke-width:0.2015}
    .fil0 {fill:none}
   ]]>
  </style>
 </defs>
 <g id="Camada_x0020_1">
  <metadata id="CorelCorpID_0Corel-Layer"/>
  <polygon class="fil0 str0" points="0,0 100,0 100,100 0,100 "/>
  <polygon class="fil0 str1" points="0,120 50,120 50,170 0,170 "/>
  <polygon class="fil0 str1" points="60,120 110,120 110,170 60,170 "/>
  <polygon class="fil0 str0" points="0,190 100,190 100,290 0,290 "/>
  <polygon class="fil0 str2" points="160,290 160,190 110,190 110,290 "/>
  <polygon class="fil0 str0" points="120,150 170,150 170,0 120,0 "/>
  <polygon class="fil0 str3" points="220,290 220,190 170,190 170,290 "/>
  <polygon class="fil0 str4" points="230,150 230,0 180,0 180,150 "/>
 </g>
</svg>
