<?xml version="1.0" encoding="UTF-8"?>
<!DOCTYPE svg PUBLIC "-//W3C//DTD SVG 1.1//EN" "http://www.w3.org/Graphics/SVG/1.1/DTD/svg11.dtd">
<!-- Creator: CorelDRAW X8 -->
<svg xmlns="http://www.w3.org/2000/svg" xml:space="preserve" width="21cm" height="29.7cm" version="1.1" style="shape-rendering:geometricPrecision; text-rendering:geometricPrecision; image-rendering:optimizeQuality; fill-rule:evenodd; clip-rule:evenodd"
viewBox="0 0 210 297"
 xmlns:xlink="http://www.w3.org/1999/xlink">
 <defs>
  <style type="text/css">
   <![CDATA[
    .str0 {stroke:#373435;stroke-width:0.0762}
    .fil0 {fill:none}
   ]]>
  </style>
 </defs>
 <g id="Camada_x0020_1">
  <metadata id="CorelCorpID_0Corel-Layer"/>
  <g id="_1774790062416">
   <g>
    <g>
     <polygon class="fil0 str0" points="30,86 60,86 60,116 30,116 "/>
     <polygon class="fil0 str0" points="39,93 51,93 51,108 39,108 "/>
    </g>
    <g>
     <polygon class="fil0 str0" points="60,151 30,151 30,121 60,121 "/>
     <polygon class="fil0 str0" points="51,144 39,144 39,129 51,129 "/>
    </g>
    <g>
     <polygon class="fil0 str0" points="30,156 60,156 60,186 30,186 "/>
     <polygon class="fil0 str0" points="39,163 51,163 51,178 39,178 "/>
    </g>
    <g>
     <polygon class="fil0 str0" points="60,221 30,221 30,191 60,191 "/>
     <polygon class="fil0 str0" points="51,214 39,214 39,199 51,199 "/>
    </g>
    <g>
     <polygon class="fil0 str0" points="65,191 95,191 95,221 65,221 "/>
     <polygon class="fil0 str0" points="74,198 86,198 86,213 74,213 "/>
    </g>
    <g>
     <polygon class="fil0 str0" points="65,156 95,156 95,186 65,186 "/>
     <polygon class="fil0 str0" points="74,163 86,163 86,178 74,178 "/>
    </g>
    <g>
     <polygon class="fil0 str0" points="95,151 65,151 65,121 95,121 "/>
     <polygon class="fil0 str0" points="86,144 74,144 74,129 86,129 "/>
    </g>
    <g>
     <polygon class="fil0 str0" points="95,116 65,116 65,86 95,86 "/>
     <polygon class="fil0 str0" points="86,109 74,109 74,94 86,94 "/>
    </g>
    <g>
     <polygon class="fil0 str0" points="100,191 130,191 130,221 100,221 "/>
     <polygon class="fil0 str0" points="109,198 121,198 121,213 109,213 "/>
    </g>
    <g>
     <polygon class="fil0 str0" points="130,186 100,186 100,156 130,156 "/>
     <polygon class="fil0 str0" points="121,179 109,179 109,164 121,164 "/>
    </g>
    <g>
     <polygon class="fil0 str0" points="130,151 100,151 100,121 130,121 "/>
     <polygon class="fil0 str0" points="121,144 109,144 109,129 121,129 "/>
    </g>
    <g>
     <polygon class="fil0 str0" points="130,116 100,116 100,86 130,86 "/>
     <polygon class="fil0 str0" points="121,109 109,109 109,94 121,94 "/>
    </g>
    <g>
     <polygon class="fil0 str0" points="135,191 165,191 165,221 135,221 "/>
     <polygon class="fil0 str0" points="144,198 156,198 156,213 144,213 "/>
    </g>
    <g>
     <polygon class="fil0 str0" points="165,186 135,186 135,156 165,156 "/>
     <polygon class="fil0 str0" points="156,179 144,179 144,164 156,164 "/>
    </g>
    <g>
     <polygon class="fil0 str0" points="165,151 135,151 135,121 165,121 "/>
     <polygon class="fil0 str0" points="156,144 144,144 144,129 156,129 "/>
    </g>
    <g>
     <polygon class="fil0 str0" points="165,116 135,116 135,86 165,86 "/>
     <polygon class="fil0 str0" points="156,109 144,109 144,94 156,94 "/>
    </g>
   </g>
  </g>
 </g>
</svg>
