<?xml version="1.0" encoding="UTF-8"?>
<!DOCTYPE svg PUBLIC "-//W3C//DTD SVG 1.1//EN" "http://www.w3.org/Graphics/SVG/1.1/DTD/svg11.dtd">
<!-- Creator: CorelDRAW X8 -->
<svg xmlns="http://www.w3.org/2000/svg" xml:space="preserve" width="21cm" height="29.7cm" version="1.1" style="shape-rendering:geometricPrecision; text-rendering:geometricPrecision; image-rendering:optimizeQuality; fill-rule:evenodd; clip-rule:evenodd"
viewBox="0 0 210 297"
 xmlns:xlink="http://www.w3.org/1999/xlink">
 <defs>
  <style type="text/css">
   <![CDATA[
    .str3 {stroke:#373435;stroke-width:0.1343}
    .str1 {stroke:#373435;stroke-width:0.1993}
    .str2 {stroke:#373435;stroke-width:0.1997}
    .str0 {stroke:#373435;stroke-width:0.2}
    .str4 {stroke:#373435;stroke-width:0.2015}
    .fil0 {fill:none}
   ]]>
  </style>
 </defs>
 <g id="Camada_x0020_1">
  <metadata id="CorelCorpID_0Corel-Layer"/>
  <polygon class="fil0 str0" points="0,0 100,0 100,100 0,100 "/>
  <polygon class="fil0 str1" points="0,110 50,110 50,160 0,160 "/>
  <polygon class="fil0 str1" points="60,110 110,110 110,160 60,160 "/>
  <polygon class="fil0 str0" points="0,170 100,170 100,270 0,270 "/>
  <polygon class="fil0 str2" points="170,270 170,170 120,170 120,270 "/>
  <polygon class="fil0 str0" points="120,150 170,150 170,0 120,0 "/>
  <polygon class="fil0 str3" points="240,270 240,170 190,170 190,270 "/>
  <polygon class="fil0 str4" points="240,150 240,0 190,0 190,150 "/>
  <polygon class="fil0 str0" points="0,330 75,330 75,280 0,280 "/>
  <polygon class="fil0 str0" points="95,330 220,330 220,280 95,280 "/>
 </g>
</svg>
