<?xml version="1.0" encoding="UTF-8"?>
<!DOCTYPE svg PUBLIC "-//W3C//DTD SVG 1.1//EN" "http://www.w3.org/Graphics/SVG/1.1/DTD/svg11.dtd">
<!-- Creator: CorelDRAW X8 -->
<svg xmlns="http://www.w3.org/2000/svg" xml:space="preserve" width="21cm" height="29.7cm" version="1.1" style="shape-rendering:geometricPrecision; text-rendering:geometricPrecision; image-rendering:optimizeQuality; fill-rule:evenodd; clip-rule:evenodd"
viewBox="0 0 210 297"
 xmlns:xlink="http://www.w3.org/1999/xlink">
 <defs>
  <style type="text/css">
   <![CDATA[
    .str0 {stroke:#373435;stroke-width:0.0762}
    .fil0 {fill:none}
   ]]>
  </style>
 </defs>
 <g id="Layer_x0020_1">
  <metadata id="CorelCorpID_0Corel-Layer"/>
  <g id="_1774791051472">
   <g>
    <g>
     <polygon class="fil0 str0" points="1297,48 1185,48 1185,-92 1297,-92 "/>
    </g>
    <g>
     <polygon class="fil0 str0" points="1297,165 1269,193 1185,193 1185,53 1241,53 1297,109 "/>
    </g>
    <g>
     <polygon class="fil0 str0" points="1325,338 1185,338 1185,198 1213,198 1325,310 "/>
    </g>
    <g>
     <polygon class="fil0 str0" points="1288,181 1344,153 1400,181 1400,265 1344,293 1288,265 "/>
    </g>
    <g>
     <polygon class="fil0 str0" points="1322,137 1266,53 1378,53 "/>
    </g>
    <g>
     <polygon class="fil0 str0" points="1330,-92 1386,-92 1414,-64 1414,-8 1386,20 1330,20 1302,-8 1302,-64 "/>
    </g>
    <g>
     <polygon class="fil0 str0" points="1412,153 1356,153 1356,97 1412,97 "/>
    </g>
   </g>
  </g>
 </g>
</svg>
