<?xml version="1.0" encoding="UTF-8"?>
<!DOCTYPE svg PUBLIC "-//W3C//DTD SVG 1.1//EN" "http://www.w3.org/Graphics/SVG/1.1/DTD/svg11.dtd">
<!-- Creator: CorelDRAW X8 -->
<svg xmlns="http://www.w3.org/2000/svg" xml:space="preserve" width="21cm" height="29.7cm" version="1.1" style="shape-rendering:geometricPrecision; text-rendering:geometricPrecision; image-rendering:optimizeQuality; fill-rule:evenodd; clip-rule:evenodd"
viewBox="0 0 210 297"
 xmlns:xlink="http://www.w3.org/1999/xlink">
 <defs>
  <style type="text/css">
   <![CDATA[
    .str0 {stroke:#373435;stroke-width:0.0762}
    .fil0 {fill:none}
   ]]>
  </style>
 </defs>
 <g id="Layer_x0020_1">
  <metadata id="CorelCorpID_0Corel-Layer"/>
  <g id="_1774791059568">
   <g>
    <g>
     <polygon class="fil0 str0" points="559,-16 447,-16 447,-156 559,-156 "/>
    </g>
    <g>
     <polygon class="fil0 str0" points="676,-16 564,-16 564,-156 676,-156 "/>
    </g>
    <g>
     <polygon class="fil0 str0" points="681,-128 709,-156 793,-156 793,-16 737,-16 681,-72 "/>
    </g>
    <g>
     <polygon class="fil0 str0" points="910,-44 882,-16 798,-16 798,-156 854,-156 910,-100 "/>
    </g>
    <g>
     <polygon class="fil0 str0" points="1055,-16 915,-16 915,-156 943,-156 1055,-44 "/>
    </g>
    <g>
     <polygon class="fil0 str0" points="978,-156 1118,-156 1118,-16 1090,-16 978,-128 "/>
    </g>
    <g>
     <polygon class="fil0 str0" points="763,87 707,115 651,87 651,3 707,-25 763,3 "/>
    </g>
    <g>
     <polygon class="fil0 str0" points="841,10 897,-18 953,10 953,94 897,122 841,94 "/>
    </g>
    <g>
     <polygon class="fil0 str0" points="562,-11 618,-11 646,17 646,73 618,101 562,101 534,73 534,17 "/>
    </g>
    <g>
     <polygon class="fil0 str0" points="1042,101 986,101 958,73 958,17 986,-11 1042,-11 1070,17 1070,73 "/>
    </g>
    <g>
     <polygon class="fil0 str0" points="505,38 561,122 449,122 "/>
    </g>
    <g>
     <polygon class="fil0 str0" points="800,41 856,125 744,125 "/>
    </g>
    <g>
     <polygon class="fil0 str0" points="1075,-11 1131,-11 1131,45 1075,45 "/>
    </g>
    <g>
     <polygon class="fil0 str0" points="1131,106 1075,106 1075,50 1131,50 "/>
    </g>
   </g>
  </g>
 </g>
</svg>
