<?xml version="1.0" encoding="UTF-8"?>
<!DOCTYPE svg PUBLIC "-//W3C//DTD SVG 1.1//EN" "http://www.w3.org/Graphics/SVG/1.1/DTD/svg11.dtd">
<!-- Creator: CorelDRAW X8 -->
<svg xmlns="http://www.w3.org/2000/svg" xml:space="preserve" width="21cm" height="29.7cm" version="1.1" style="shape-rendering:geometricPrecision; text-rendering:geometricPrecision; image-rendering:optimizeQuality; fill-rule:evenodd; clip-rule:evenodd"
viewBox="0 0 210 297"
 xmlns:xlink="http://www.w3.org/1999/xlink">
 <defs>
  <style type="text/css">
   <![CDATA[
    .str0 {stroke:#373435;stroke-width:0.0762}
    .fil0 {fill:none}
   ]]>
  </style>
 </defs>
 <g id="Layer_x0020_1">
  <metadata id="CorelCorpID_0Corel-Layer"/>
  <g id="_1774787413776">
   <g>
    <g>
     <polygon class="fil0 str0" points="899,351 787,351 787,211 899,211 "/>
    </g>
    <g>
     <polygon class="fil0 str0" points="899,496 787,496 787,356 899,356 "/>
    </g>
    <g>
     <polygon class="fil0 str0" points="787,529 815,501 899,501 899,641 843,641 787,585 "/>
    </g>
    <g>
     <polygon class="fil0 str0" points="904,211 1016,211 1016,351 904,351 "/>
    </g>
    <g>
     <polygon class="fil0 str0" points="904,384 932,356 1016,356 1016,496 960,496 904,440 "/>
    </g>
    <g>
     <polygon class="fil0 str0" points="904,529 932,501 1016,501 1016,641 960,641 904,585 "/>
    </g>
    <g>
     <polygon class="fil0 str0" points="1161,351 1021,351 1021,211 1049,211 1161,323 "/>
    </g>
    <g>
     <polygon class="fil0 str0" points="1021,356 1161,356 1161,496 1133,496 1021,384 "/>
    </g>
    <g>
     <polygon class="fil0 str0" points="1161,559 1021,559 1021,419 1049,419 1161,531 "/>
    </g>
    <g>
     <polygon class="fil0 str0" points="1021,593 1077,565 1133,593 1133,677 1077,705 1021,677 "/>
    </g>
    <g>
     <polygon class="fil0 str0" points="1250,661 1194,689 1138,661 1138,577 1194,549 1250,577 "/>
    </g>
    <g>
     <polygon class="fil0 str0" points="1168,211 1224,211 1252,239 1252,295 1224,323 1168,323 1140,295 1140,239 "/>
    </g>
    <g>
     <polygon class="fil0 str0" points="1250,440 1194,440 1166,412 1166,356 1194,328 1250,328 1278,356 1278,412 "/>
    </g>
    <g>
     <polygon class="fil0 str0" points="1277,557 1221,557 1193,529 1193,473 1221,445 1277,445 1305,473 1305,529 "/>
    </g>
    <g>
     <polygon class="fil0 str0" points="1255,574 1311,546 1367,574 1367,658 1311,686 1255,658 "/>
    </g>
    <g>
     <polygon class="fil0 str0" points="924,614 980,698 868,698 "/>
    </g>
    <g>
     <polygon class="fil0 str0" points="1307,391 1251,307 1363,307 "/>
    </g>
    <g>
     <polygon class="fil0 str0" points="1299,300 1243,216 1355,216 "/>
    </g>
    <g>
     <polygon class="fil0 str0" points="787,646 843,646 843,702 787,702 "/>
    </g>
    <g>
     <polygon class="fil0 str0" points="1350,454 1294,454 1294,398 1350,398 "/>
    </g>
    <g>
     <polygon class="fil0 str0" points="1366,515 1310,515 1310,459 1366,459 "/>
    </g>
   </g>
  </g>
 </g>
</svg>
