<?xml version="1.0" encoding="UTF-8"?>
<!DOCTYPE svg PUBLIC "-//W3C//DTD SVG 1.1//EN" "http://www.w3.org/Graphics/SVG/1.1/DTD/svg11.dtd">
<!-- Creator: CorelDRAW X8 -->
<svg xmlns="http://www.w3.org/2000/svg" xml:space="preserve" width="21cm" height="29.7cm" version="1.1" style="shape-rendering:geometricPrecision; text-rendering:geometricPrecision; image-rendering:optimizeQuality; fill-rule:evenodd; clip-rule:evenodd"
viewBox="0 0 210 297"
 xmlns:xlink="http://www.w3.org/1999/xlink">
 <defs>
  <style type="text/css">
   <![CDATA[
    .str0 {stroke:#373435;stroke-width:0.0762}
    .fil0 {fill:none}
   ]]>
  </style>
 </defs>
 <g id="Layer_x0020_1">
  <metadata id="CorelCorpID_0Corel-Layer"/>
  <g id="_1774791047248">
   <g>
    <g>
     <polygon class="fil0 str0" points="2033,89 2117,4 2202,89 2117,172 "/>
    </g>
    <g>
     <polygon class="fil0 str0" points="2032,135 2060,135 2060,178 2201,178 2201,135 2228,135 2228,206 2032,206 "/>
    </g>
    <g>
     <polygon class="fil0 str0" points="2200,98 2284,14 2369,98 2284,182 "/>
    </g>
    <g>
     <polygon class="fil0 str0" points="2228,281 2200,281 2200,239 2059,239 2059,281 2032,281 2032,211 2228,211 "/>
    </g>
    <g>
     <polygon class="fil0 str0" points="2233,188 2318,188 2318,160 2332,160 2388,215 2388,243 2346,243 2346,202 2261,202 2261,243 2233,243 "/>
    </g>
    <g>
     <polygon class="fil0 str0" points="2421,264 2336,264 2336,291 2322,291 2266,236 2266,207 2308,207 2308,250 2393,250 2393,207 2421,207 "/>
    </g>
    <g>
     <polygon class="fil0 str0" points="2423,60 2395,60 2395,88 2367,88 2367,60 2338,60 2338,32 2367,32 2367,3 2395,3 2395,32 2423,32 "/>
    </g>
    <g>
     <polygon class="fil0 str0" points="2342,133 2370,133 2370,106 2398,106 2398,133 2425,133 2425,161 2398,161 2398,189 2370,189 2370,161 2342,161 "/>
    </g>
   </g>
  </g>
 </g>
</svg>
