<?xml version="1.0" encoding="UTF-8"?>
<!DOCTYPE svg PUBLIC "-//W3C//DTD SVG 1.1//EN" "http://www.w3.org/Graphics/SVG/1.1/DTD/svg11.dtd">
<!-- Creator: CorelDRAW X8 -->
<svg xmlns="http://www.w3.org/2000/svg" xml:space="preserve" width="21cm" height="29.7cm" version="1.1" style="shape-rendering:geometricPrecision; text-rendering:geometricPrecision; image-rendering:optimizeQuality; fill-rule:evenodd; clip-rule:evenodd"
viewBox="0 0 210 297"
 xmlns:xlink="http://www.w3.org/1999/xlink">
 <defs>
  <style type="text/css">
   <![CDATA[
    .str0 {stroke:#373435;stroke-width:0.0762}
    .fil0 {fill:none}
   ]]>
  </style>
 </defs>
 <g id="Layer_x0020_1">
  <metadata id="CorelCorpID_0Corel-Layer"/>
  <g id="_1774787138432">
   <g>
    <g>
     <polygon class="fil0 str0" points="1269,-42 1353,-127 1437,-42 1353,42 "/>
    </g>
    <g>
     <polygon class="fil0 str0" points="1269,132 1354,48 1437,132 1354,216 "/>
    </g>
    <g>
     <polygon class="fil0 str0" points="1358,44 1442,-40 1526,44 1442,128 "/>
    </g>
    <g>
     <polygon class="fil0 str0" points="1445,132 1529,48 1613,132 1529,216 "/>
    </g>
    <g>
     <polygon class="fil0 str0" points="1625,-58 1597,-58 1597,-99 1457,-99 1457,-58 1429,-58 1429,-128 1625,-128 "/>
    </g>
    <g>
     <polygon class="fil0 str0" points="1466,-94 1494,-94 1494,-53 1634,-53 1634,-94 1662,-94 1662,-24 1466,-24 "/>
    </g>
    <g>
     <polygon class="fil0 str0" points="1541,-19 1569,-19 1569,22 1709,22 1709,-19 1737,-19 1737,51 1541,51 "/>
    </g>
    <g>
     <polygon class="fil0 str0" points="1607,147 1634,147 1634,188 1774,188 1774,147 1802,147 1802,217 1607,217 "/>
    </g>
    <g>
     <polygon class="fil0 str0" points="1619,83 1704,83 1704,56 1717,56 1774,112 1774,140 1731,140 1731,98 1647,98 1647,140 1619,140 "/>
    </g>
    <g>
     <polygon class="fil0 str0" points="1819,-72 1735,-72 1735,-44 1721,-44 1665,-99 1665,-128 1707,-128 1707,-86 1791,-86 1791,-128 1819,-128 "/>
    </g>
    <g>
     <polygon class="fil0 str0" points="1667,-39 1751,-39 1751,-67 1766,-67 1821,-11 1821,17 1779,17 1779,-26 1696,-26 1696,17 1667,17 "/>
    </g>
    <g>
     <polygon class="fil0 str0" points="1896,78 1812,78 1812,106 1797,106 1742,50 1742,22 1784,22 1784,65 1867,65 1867,22 1896,22 "/>
    </g>
    <g>
     <polygon class="fil0 str0" points="1790,111 1817,111 1817,84 1845,84 1845,111 1873,111 1873,140 1845,140 1845,168 1817,168 1817,140 1790,140 "/>
    </g>
    <g>
     <polygon class="fil0 str0" points="1803,-67 1832,-67 1832,-94 1859,-94 1859,-67 1887,-67 1887,-38 1859,-38 1859,-10 1832,-10 1832,-38 1803,-38 "/>
    </g>
    <g>
     <polygon class="fil0 str0" points="1934,173 1906,173 1906,201 1878,201 1878,173 1850,173 1850,145 1878,145 1878,117 1906,117 1906,145 1934,145 "/>
    </g>
    <g>
     <polygon class="fil0 str0" points="1948,-72 1919,-72 1919,-44 1892,-44 1892,-72 1864,-72 1864,-100 1892,-100 1892,-128 1919,-128 1919,-100 1948,-100 "/>
    </g>
   </g>
  </g>
 </g>
</svg>
