<?xml version="1.0" encoding="UTF-8"?>
<!DOCTYPE svg PUBLIC "-//W3C//DTD SVG 1.1//EN" "http://www.w3.org/Graphics/SVG/1.1/DTD/svg11.dtd">
<!-- Creator: CorelDRAW X8 -->
<svg xmlns="http://www.w3.org/2000/svg" xml:space="preserve" width="21cm" height="29.7cm" version="1.1" style="shape-rendering:geometricPrecision; text-rendering:geometricPrecision; image-rendering:optimizeQuality; fill-rule:evenodd; clip-rule:evenodd"
viewBox="0 0 210 297"
 xmlns:xlink="http://www.w3.org/1999/xlink">
 <defs>
  <style type="text/css">
   <![CDATA[
    .str0 {stroke:#373435;stroke-width:0.0762}
    .fil0 {fill:none}
   ]]>
  </style>
 </defs>
 <g id="Camada_x0020_1">
  <metadata id="CorelCorpID_0Corel-Layer"/>
  <g id="_1774686061712">
   <g>
    <g>
     <polygon class="fil0 str0" points="48,106 37,133 -32,104 -21,77 31,49 "/>
    </g>
    <g>
     <polygon class="fil0 str0" points="-12,203 -32,183 21,130 41,150 47,210 "/>
    </g>
    <g>
     <polygon class="fil0 str0" points="-33,229 -22,203 48,231 37,258 -15,286 "/>
    </g>
    <g>
     <polygon class="fil0 str0" points="108,172 88,193 35,140 55,119 115,114 "/>
    </g>
    <g>
     <polygon class="fil0 str0" points="50,225 50,196 125,196 125,225 87,271 "/>
    </g>
    <g>
     <polygon class="fil0 str0" points="132,134 159,123 188,192 161,203 104,187 "/>
    </g>
    <g>
     <polygon class="fil0 str0" points="123,279 102,258 155,205 176,226 181,285 "/>
    </g>
    <g>
     <polygon class="fil0 str0" points="172,69 192,49 245,102 225,122 165,128 "/>
    </g>
    <g>
     <polygon class="fil0 str0" points="225,198 198,209 169,139 196,128 253,146 "/>
    </g>
    <g>
     <polygon class="fil0 str0" points="92,80 93,51 167,51 167,80 130,126 "/>
    </g>
    <g>
     <polygon class="fil0 str0" points="236,216 256,237 204,289 183,269 177,210 "/>
    </g>
   </g>
  </g>
 </g>
</svg>
