<?xml version="1.0" encoding="UTF-8"?>
<!DOCTYPE svg PUBLIC "-//W3C//DTD SVG 1.1//EN" "http://www.w3.org/Graphics/SVG/1.1/DTD/svg11.dtd">
<!-- Creator: CorelDRAW X8 -->
<svg xmlns="http://www.w3.org/2000/svg" xml:space="preserve" width="21cm" height="29.7cm" version="1.1" style="shape-rendering:geometricPrecision; text-rendering:geometricPrecision; image-rendering:optimizeQuality; fill-rule:evenodd; clip-rule:evenodd"
viewBox="0 0 210 297"
 xmlns:xlink="http://www.w3.org/1999/xlink">
 <defs>
  <style type="text/css">
   <![CDATA[
    .str0 {stroke:#373435;stroke-width:0.0762}
    .fil0 {fill:none}
   ]]>
  </style>
 </defs>
 <g id="Camada_x0020_1">
  <metadata id="CorelCorpID_0Corel-Layer"/>
  <g id="_1774787440400">
   <g>
    <g>
     <polygon class="fil0 str0" points="651,71 651,57 678,54 688,51 692,49 698,52 707,55 707,71 "/>
    </g>
    <g>
     <polygon class="fil0 str0" points="651,95 651,81 678,78 688,75 692,73 698,76 707,79 707,95 "/>
    </g>
    <g>
     <polygon class="fil0 str0" points="651,119 651,105 678,102 688,99 692,97 698,100 707,103 707,119 "/>
    </g>
    <g>
     <polygon class="fil0 str0" points="709,111 709,97 736,94 746,91 750,89 756,92 765,95 765,111 "/>
    </g>
    <g>
     <polygon class="fil0 str0" points="765,49 765,63 738,66 728,69 724,71 718,68 709,65 709,49 "/>
    </g>
    <g>
     <polygon class="fil0 str0" points="725,87 725,73 752,70 762,67 766,65 772,68 781,71 781,87 "/>
    </g>
    <g>
     <polygon class="fil0 str0" points="823,89 823,103 796,106 786,109 782,111 776,108 767,105 767,89 "/>
    </g>
    <g>
     <polygon class="fil0 str0" points="827,49 827,63 800,66 790,69 786,71 780,68 771,65 771,49 "/>
    </g>
    <g>
     <polygon class="fil0 str0" points="783,74 795,73 797,71 807,74 816,75 842,76 842,87 787,87 787,82 785,79 783,79 "/>
    </g>
    <g>
     <polygon class="fil0 str0" points="783,113 795,112 797,110 807,113 816,114 842,115 842,126 787,126 787,121 785,118 783,118 "/>
    </g>
    <g>
     <polygon class="fil0 str0" points="884,102 872,103 870,105 860,102 851,101 825,100 825,89 880,89 880,94 882,97 884,97 "/>
    </g>
    <g>
     <polygon class="fil0 str0" points="829,52 841,51 843,49 853,52 862,53 888,54 888,65 833,65 833,60 831,57 829,57 "/>
    </g>
    <g>
     <polygon class="fil0 str0" points="903,120 891,121 889,123 879,120 870,119 844,118 844,107 899,107 899,112 901,115 903,115 "/>
    </g>
    <g>
     <polygon class="fil0 str0" points="903,80 891,81 889,83 879,80 870,79 844,78 844,67 899,67 899,72 901,75 903,75 "/>
    </g>
    <g>
     <polygon class="fil0 str0" points="882,86 894,85 896,83 906,86 915,87 941,88 941,99 886,99 886,94 884,91 882,91 "/>
    </g>
    <g>
     <polygon class="fil0 str0" points="949,67 937,68 935,70 925,67 916,66 890,65 890,54 945,54 945,59 947,62 949,62 "/>
    </g>
    <g>
     <polygon class="fil0 str0" points="766,118 709,118 709,113 766,113 "/>
    </g>
    <g>
     <polygon class="fil0 str0" points="753,125 709,125 709,120 753,120 "/>
    </g>
    <g>
     <polygon class="fil0 str0" points="703,126 651,126 651,121 703,121 "/>
    </g>
    <g>
     <polygon class="fil0 str0" points="901,101 943,101 943,106 901,106 "/>
    </g>
    <g>
     <polygon class="fil0 str0" points="715,69 719,71 721,79 719,80 711,80 709,79 711,71 "/>
    </g>
    <g>
     <polygon class="fil0 str0" points="715,83 719,85 721,93 719,94 711,94 709,93 711,85 "/>
    </g>
    <g>
     <polygon class="fil0 str0" points="774,122 770,120 768,112 770,111 778,111 780,112 778,120 "/>
    </g>
    <g>
     <polygon class="fil0 str0" points="911,111 915,113 917,121 915,122 907,122 905,121 907,113 "/>
    </g>
    <g>
     <polygon class="fil0 str0" points="911,73 915,75 917,83 915,84 907,84 905,83 907,75 "/>
    </g>
    <g>
     <polygon class="fil0 str0" points="921,80 917,78 915,70 917,69 925,69 927,70 925,78 "/>
    </g>
    <g>
     <polygon class="fil0 str0" points="925,111 929,113 931,121 929,122 921,122 919,121 921,113 "/>
    </g>
    <g>
     <polygon class="fil0 str0" points="932,74 936,76 938,84 936,85 928,85 926,84 928,76 "/>
    </g>
    <g>
     <polygon class="fil0 str0" points="823,72 809,72 809,67 823,67 "/>
    </g>
    <g>
     <polygon class="fil0 str0" points="822,106 837,110 835,113 822,112 "/>
    </g>
    <g>
     <polygon class="fil0 str0" points="946,115 931,111 933,108 946,109 "/>
    </g>
    <g>
     <polygon class="fil0 str0" points="825,66 840,70 838,73 825,72 "/>
    </g>
    <g>
     <polygon class="fil0 str0" points="933,114 948,118 946,121 933,120 "/>
    </g>
    <g>
     <polygon class="fil0 str0" points="950,77 935,73 937,70 950,71 "/>
    </g>
    <g>
     <polygon class="fil0 str0" points="940,77 955,81 953,84 940,83 "/>
    </g>
    <g>
     <polygon class="fil0 str0" points="959,92 944,88 946,85 959,86 "/>
    </g>
    <g>
     <polygon class="fil0 str0" points="943,90 958,94 956,97 943,96 "/>
    </g>
    <g>
     <polygon class="fil0 str0" points="768,126 755,126 755,121 768,121 "/>
    </g>
    <g>
     <polygon class="fil0 str0" points="955,57 952,59 947,57 947,49 953,49 "/>
    </g>
    <g>
     <polygon class="fil0 str0" points="946,101 949,99 954,101 954,109 948,109 "/>
    </g>
    <g>
     <polygon class="fil0 str0" points="959,69 956,71 951,69 951,61 957,61 "/>
    </g>
    <g>
     <polygon class="fil0 str0" points="959,119 956,121 951,119 951,111 957,111 "/>
    </g>
    <g>
     <polygon class="fil0 str0" points="964,107 961,109 956,107 956,99 962,99 "/>
    </g>
    <g>
     <polygon class="fil0 str0" points="955,51 958,49 963,51 963,59 957,59 "/>
    </g>
    <g>
     <polygon class="fil0 str0" points="965,81 962,83 957,81 957,73 963,73 "/>
    </g>
    <g>
     <polygon class="fil0 str0" points="960,113 963,111 968,113 968,121 962,121 "/>
    </g>
    <g>
     <polygon class="fil0 str0" points="856,126 844,126 844,121 856,121 "/>
    </g>
    <g>
     <polygon class="fil0 str0" points="844,81 856,81 856,86 844,86 "/>
    </g>
    <g>
     <polygon class="fil0 str0" points="666,53 651,52 651,49 666,49 "/>
    </g>
    <g>
     <polygon class="fil0 str0" points="651,73 672,73 672,75 651,75 "/>
    </g>
    <g>
     <polygon class="fil0 str0" points="677,100 656,100 656,98 677,98 "/>
    </g>
    <g>
     <polygon class="fil0 str0" points="858,123 879,123 879,125 858,125 "/>
    </g>
    <g>
     <polygon class="fil0 str0" points="879,85 858,85 858,83 879,83 "/>
    </g>
    <g>
     <polygon class="fil0 str0" points="869,49 890,49 890,51 869,51 "/>
    </g>
    <g>
     <polygon class="fil0 str0" points="913,126 892,126 892,124 913,124 "/>
    </g>
    <g>
     <polygon class="fil0 str0" points="892,50 913,50 913,52 892,52 "/>
    </g>
    <g>
     <polygon class="fil0 str0" points="915,124 936,124 936,126 915,126 "/>
    </g>
    <g>
     <polygon class="fil0 str0" points="819,111 805,110 805,107 819,107 "/>
    </g>
    <g>
     <polygon class="fil0 str0" points="951,127 938,126 938,123 951,123 "/>
    </g>
    <g>
     <polygon class="fil0 str0" points="953,123 966,124 966,127 953,127 "/>
    </g>
    <g>
     <polygon class="fil0 str0" points="964,68 962,67 961,62 962,61 966,61 967,62 966,67 "/>
    </g>
    <g>
     <polygon class="fil0 str0" points="964,93 962,92 961,87 962,86 966,86 967,87 966,92 "/>
    </g>
    <g>
     <polygon class="fil0 str0" points="968,49 970,50 971,55 970,56 966,56 965,55 966,50 "/>
    </g>
    <g>
     <polygon class="fil0 str0" points="968,103 966,102 965,97 966,96 970,96 971,97 970,102 "/>
    </g>
   </g>
  </g>
 </g>
</svg>
